<svg width="459" height="187" viewBox="0 0 459 187" fill="none" xmlns="http://www.w3.org/2000/svg">
<path d="M82.022 0C93.0343 0 103.54 2.01797 113.134 5.67793V43.8101C105.386 37.6074 95.5522 33.8973 84.8504 33.8973C59.8575 33.8973 39.5968 54.1324 39.5968 79.0937C39.5968 104.055 59.8575 124.29 84.8504 124.29H113.134V135.589H118.791V152.538L113.5 152.5L113.134 152.538L91 152.538H82.022C81.0832 152.567 82.9686 152.538 82.022 152.538C28 154.24 0 118.391 0 76.2689C0 34.1467 36.7225 0 82.022 0Z" fill="#EC5858"/>
<path d="M118.791 135.589V152.538L113.5 152.5L113.134 152.538L91 152.538H82.022L118.791 152.538V135.589Z" fill="#EC5858"/>
<path d="M118.791 141.239H265.864V146.888H118.791V141.239Z" fill="#EDF285"/>
<path d="M265.864 141.239H268.693V152.538H265.864V141.239Z" fill="#EDF285"/>
<path d="M104.046 102.777L104.589 89.8504H137.081L137.534 102.777H104.046ZM120.609 75.6587L112.282 94.6412L113.368 98.5281L106.037 112.991H86.1256L120.609 45.4676L155.182 112.991H135.271L128.03 99.1609L129.026 94.6412L120.609 75.6587Z" fill="#EC5858"/>
<path d="M178.609 85.0596H196.62L215.626 112.991H195.172L178.609 85.0596ZM161.413 49.716H178.971V112.991H161.413V49.716ZM172.635 64.5404V49.716H186.302C192.095 49.716 196.861 50.6199 200.602 52.4278C204.403 54.2356 207.209 56.7365 209.019 59.9304C210.89 63.064 211.825 66.7099 211.825 70.8679C211.825 74.9657 210.89 78.6417 209.019 81.8958C207.209 85.0897 204.403 87.5906 200.602 89.3984C196.861 91.146 192.095 92.0198 186.302 92.0198H172.635V78.7321H184.854C186.724 78.7321 188.293 78.4609 189.56 77.9186C190.827 77.3762 191.793 76.5627 192.457 75.478C193.181 74.3932 193.543 73.0976 193.543 71.5911C193.543 70.0845 193.181 68.819 192.457 67.7946C191.793 66.7098 190.827 65.8963 189.56 65.354C188.293 64.8116 186.724 64.5404 184.854 64.5404H172.635Z" fill="#EC5858"/>
<path d="M215.975 65.354V49.716H269.012V65.354H251.273V112.991H233.714V65.354H215.975Z" fill="#EC5858"/>
<path d="M275.695 49.716H293.254V98.0761H318.867V112.991H275.695V49.716Z" fill="#93ABD3"/>
<path d="M339.417 102.777L339.96 89.8504H372.452L372.905 102.777H339.417ZM355.98 75.6587L347.653 94.6412L348.74 98.5281L341.409 112.991H321.497L355.98 45.4676L390.554 112.991H370.642L363.402 99.1609L364.397 94.6412L355.98 75.6587Z" fill="#93ABD3"/>
<path d="M425.993 90.6639V77.6474H458.847C459.269 82.8299 458.817 87.7111 457.489 92.291C456.162 96.8709 454.08 100.878 451.244 104.313C448.409 107.748 444.849 110.46 440.565 112.449C436.281 114.377 431.363 115.341 425.812 115.341C420.683 115.341 415.947 114.528 411.602 112.901C407.318 111.273 403.577 108.984 400.38 106.031C397.242 103.018 394.798 99.432 393.048 95.274C391.299 91.0556 390.424 86.4155 390.424 81.3535C390.424 76.2915 391.329 71.7116 393.139 67.6138C394.949 63.516 397.483 60.0208 400.742 57.1282C404 54.1754 407.831 51.9457 412.236 50.4392C416.641 48.8723 421.407 48.0889 426.536 48.0889C431.182 48.0889 435.315 48.782 438.935 50.168C442.616 51.4937 445.844 53.3317 448.62 55.6819C451.395 57.9719 453.809 60.5933 455.86 63.5461L439.841 71.2295C438.573 68.9395 436.884 67.0112 434.772 65.4444C432.66 63.8775 429.915 63.0941 426.536 63.0941C423.338 63.0941 420.382 63.7871 417.666 65.1732C414.951 66.5592 412.779 68.6081 411.15 71.3199C409.581 74.0317 408.797 77.3762 408.797 81.3535C408.797 85.2705 409.551 88.6753 411.059 91.5679C412.568 94.4002 414.649 96.5696 417.304 98.0761C419.959 99.5827 423.036 100.336 426.536 100.336C428.648 100.336 430.518 100.125 432.147 99.7032C433.777 99.2211 435.195 98.5582 436.401 97.7146C437.608 96.8106 438.634 95.7561 439.479 94.5508C440.384 93.3456 441.108 92.05 441.651 90.6639H425.993Z" fill="#93ABD3"/>
<path d="M154.774 167.792L146.289 187H141.452L144.507 179.966L138.68 167.792H143.998L148.212 178.3L145.638 178.271L149.824 167.792H154.774Z" fill="#93ABD3"/>
<path d="M154.895 174.289C154.895 172.895 155.225 171.69 155.884 170.673C156.544 169.656 157.449 168.874 158.6 168.328C159.769 167.763 161.079 167.481 162.531 167.481C164.002 167.481 165.312 167.763 166.462 168.328C167.613 168.874 168.518 169.656 169.178 170.673C169.856 171.69 170.196 172.895 170.196 174.289C170.196 175.663 169.856 176.859 169.178 177.876C168.518 178.893 167.613 179.684 166.462 180.249C165.312 180.795 164.002 181.068 162.531 181.068C161.079 181.068 159.769 180.795 158.6 180.249C157.449 179.684 156.544 178.893 155.884 177.876C155.225 176.859 154.895 175.663 154.895 174.289ZM159.929 174.289C159.929 174.891 160.042 175.409 160.268 175.842C160.514 176.256 160.834 176.577 161.23 176.803C161.626 177.01 162.06 177.113 162.531 177.113C163.002 177.113 163.436 177.01 163.832 176.803C164.228 176.577 164.549 176.256 164.794 175.842C165.039 175.409 165.161 174.891 165.161 174.289C165.161 173.686 165.039 173.177 164.794 172.763C164.549 172.33 164.228 172 163.832 171.774C163.436 171.549 163.002 171.436 162.531 171.436C162.06 171.436 161.626 171.549 161.23 171.774C160.834 172 160.514 172.33 160.268 172.763C160.042 173.177 159.929 173.686 159.929 174.289Z" fill="#93ABD3"/>
<path d="M177.735 175.701C177.735 176.379 177.848 176.906 178.074 177.283C178.3 177.641 178.724 177.82 179.347 177.82C179.762 177.82 180.11 177.744 180.393 177.594C180.676 177.443 180.893 177.207 181.044 176.887C181.213 176.567 181.298 176.172 181.298 175.701V167.792H186.191V180.786H181.298V178.865C180.921 179.543 180.403 180.089 179.743 180.503C179.102 180.899 178.291 181.096 177.31 181.096C175.613 181.096 174.407 180.673 173.69 179.825C172.974 178.959 172.615 177.754 172.615 176.209V167.792H177.735V175.701Z" fill="#93ABD3"/>
<path d="M194.078 167.792V180.786H189.298V167.792H194.078ZM197.783 172.791C197.576 172.565 197.34 172.387 197.076 172.255C196.831 172.104 196.52 172.029 196.143 172.029C195.766 172.029 195.417 172.132 195.096 172.339C194.776 172.547 194.521 172.857 194.333 173.272C194.163 173.686 194.078 174.204 194.078 174.825L193.06 172.876C193.06 171.84 193.267 170.918 193.682 170.108C194.097 169.298 194.644 168.658 195.322 168.187C196.02 167.697 196.746 167.453 197.5 167.453C197.972 167.453 198.424 167.566 198.858 167.792C199.292 167.999 199.612 168.262 199.819 168.582L197.783 172.791Z" fill="#93ABD3"/>
<path d="M210.721 175.842C211.513 176.445 212.201 176.897 212.786 177.198C213.37 177.499 213.87 177.697 214.285 177.791C214.7 177.885 215.02 177.932 215.247 177.932C215.605 177.932 215.869 177.857 216.039 177.706C216.208 177.556 216.293 177.349 216.293 177.085C216.293 176.859 216.218 176.671 216.067 176.52C215.935 176.351 215.671 176.181 215.275 176.012C214.898 175.842 214.332 175.635 213.578 175.39C212.956 175.183 212.362 174.929 211.796 174.628C211.23 174.307 210.768 173.884 210.41 173.356C210.071 172.81 209.901 172.113 209.901 171.266C209.901 170.456 210.118 169.778 210.552 169.232C210.985 168.667 211.579 168.244 212.333 167.961C213.088 167.66 213.964 167.509 214.964 167.509C215.737 167.509 216.453 167.594 217.113 167.763C217.792 167.914 218.433 168.121 219.037 168.385C219.64 168.63 220.234 168.921 220.818 169.26L219.376 172.509C218.773 171.982 218.094 171.558 217.34 171.238C216.604 170.899 215.954 170.729 215.388 170.729C215.03 170.729 214.766 170.795 214.596 170.927C214.445 171.059 214.37 171.219 214.37 171.407C214.37 171.671 214.483 171.887 214.709 172.057C214.935 172.208 215.275 172.358 215.727 172.509C216.18 172.66 216.755 172.867 217.453 173.13C218.113 173.375 218.716 173.658 219.263 173.978C219.829 174.279 220.281 174.675 220.62 175.164C220.979 175.654 221.158 176.304 221.158 177.113C221.158 178.582 220.715 179.665 219.828 180.362C218.961 181.059 217.726 181.407 216.123 181.407C215.162 181.407 214.257 181.313 213.408 181.124C212.579 180.936 211.796 180.673 211.061 180.334C210.325 179.995 209.618 179.609 208.939 179.175L210.721 175.842Z" fill="#93ABD3"/>
<path d="M222.987 163.074C222.987 162.321 223.251 161.709 223.779 161.238C224.326 160.767 224.976 160.532 225.731 160.532C226.504 160.532 227.154 160.767 227.682 161.238C228.229 161.709 228.502 162.321 228.502 163.074C228.502 163.809 228.229 164.411 227.682 164.882C227.154 165.353 226.504 165.588 225.731 165.588C224.976 165.588 224.326 165.353 223.779 164.882C223.251 164.411 222.987 163.809 222.987 163.074ZM223.383 167.792H228.078V180.786H223.383V167.792Z" fill="#93ABD3"/>
<path d="M236.599 172.198H231.451V167.792H244.603L238.578 176.379H243.585V180.786H230.15L236.599 172.198Z" fill="#93ABD3"/>
<path d="M253.24 181.068C251.637 181.068 250.251 180.795 249.082 180.249C247.932 179.684 247.046 178.902 246.423 177.904C245.801 176.887 245.49 175.682 245.49 174.289C245.49 172.876 245.792 171.671 246.395 170.673C246.998 169.656 247.866 168.874 248.997 168.328C250.128 167.782 251.486 167.509 253.07 167.509C254.654 167.509 255.983 167.763 257.058 168.272C258.133 168.78 258.953 169.524 259.519 170.503C260.084 171.464 260.367 172.65 260.367 174.063C260.367 174.289 260.358 174.515 260.339 174.74C260.339 174.948 260.329 175.136 260.311 175.305H248.177V172.791H255.842L254.795 174.091C254.89 173.94 254.974 173.771 255.05 173.582C255.125 173.394 255.163 173.234 255.163 173.102C255.163 172.575 255.069 172.132 254.88 171.774C254.71 171.398 254.456 171.115 254.116 170.927C253.796 170.72 253.409 170.616 252.957 170.616C252.391 170.616 251.92 170.748 251.543 171.012C251.166 171.275 250.883 171.68 250.694 172.226C250.506 172.754 250.411 173.432 250.411 174.26C250.392 174.995 250.487 175.616 250.694 176.125C250.902 176.633 251.203 177.029 251.599 177.311C251.995 177.575 252.485 177.706 253.07 177.706C253.786 177.706 254.39 177.584 254.88 177.339C255.389 177.076 255.785 176.699 256.068 176.209L260.48 177.085C259.783 178.422 258.83 179.42 257.624 180.079C256.436 180.738 254.974 181.068 253.24 181.068Z" fill="#93ABD3"/>
<path d="M261.584 178.639C261.584 177.829 261.857 177.142 262.404 176.577C262.97 175.993 263.696 175.701 264.582 175.701C265.468 175.701 266.184 175.993 266.731 176.577C267.278 177.142 267.552 177.829 267.552 178.639C267.552 179.43 267.278 180.117 266.731 180.701C266.184 181.266 265.468 181.548 264.582 181.548C263.696 181.548 262.97 181.266 262.404 180.701C261.857 180.117 261.584 179.43 261.584 178.639Z" fill="#93ABD3"/>
<path d="M293.457 167.792L284.971 187H280.135L283.19 179.966L277.363 167.792H282.681L286.895 178.3L284.321 178.271L288.507 167.792H293.457Z" fill="#EC5858"/>
<path d="M293.577 174.289C293.577 172.895 293.907 171.69 294.567 170.673C295.227 169.656 296.132 168.874 297.283 168.328C298.452 167.763 299.762 167.481 301.214 167.481C302.685 167.481 303.995 167.763 305.145 168.328C306.296 168.874 307.201 169.656 307.861 170.673C308.539 171.69 308.879 172.895 308.879 174.289C308.879 175.663 308.539 176.859 307.861 177.876C307.201 178.893 306.296 179.684 305.145 180.249C303.995 180.795 302.685 181.068 301.214 181.068C299.762 181.068 298.452 180.795 297.283 180.249C296.132 179.684 295.227 178.893 294.567 177.876C293.907 176.859 293.577 175.663 293.577 174.289ZM298.612 174.289C298.612 174.891 298.725 175.409 298.951 175.842C299.196 176.256 299.517 176.577 299.913 176.803C300.309 177.01 300.743 177.113 301.214 177.113C301.685 177.113 302.119 177.01 302.515 176.803C302.911 176.577 303.231 176.256 303.477 175.842C303.722 175.409 303.844 174.891 303.844 174.289C303.844 173.686 303.722 173.177 303.477 172.763C303.231 172.33 302.911 172 302.515 171.774C302.119 171.549 301.685 171.436 301.214 171.436C300.743 171.436 300.309 171.549 299.913 171.774C299.517 172 299.196 172.33 298.951 172.763C298.725 173.177 298.612 173.686 298.612 174.289Z" fill="#EC5858"/>
<path d="M316.417 175.701C316.417 176.379 316.531 176.906 316.757 177.283C316.983 177.641 317.407 177.82 318.03 177.82C318.444 177.82 318.793 177.744 319.076 177.594C319.359 177.443 319.576 177.207 319.727 176.887C319.896 176.567 319.981 176.172 319.981 175.701V167.792H324.874V180.786H319.981V178.865C319.604 179.543 319.085 180.089 318.426 180.503C317.784 180.899 316.974 181.096 315.993 181.096C314.296 181.096 313.089 180.673 312.373 179.825C311.656 178.959 311.298 177.754 311.298 176.209V167.792H316.417V175.701Z" fill="#EC5858"/>
<path d="M332.761 167.792V180.786H327.981V167.792H332.761ZM336.466 172.791C336.259 172.565 336.023 172.387 335.759 172.255C335.514 172.104 335.203 172.029 334.825 172.029C334.448 172.029 334.1 172.132 333.779 172.339C333.458 172.547 333.204 172.857 333.015 173.272C332.846 173.686 332.761 174.204 332.761 174.825L331.743 172.876C331.743 171.84 331.95 170.918 332.365 170.108C332.78 169.298 333.326 168.658 334.005 168.187C334.703 167.697 335.429 167.453 336.183 167.453C336.654 167.453 337.107 167.566 337.541 167.792C337.974 167.999 338.295 168.262 338.502 168.582L336.466 172.791Z" fill="#EC5858"/>
<path d="M358.54 158.752H363.433V180.786H358.54V158.752ZM347.99 174.289C347.99 172.801 348.282 171.558 348.867 170.56C349.47 169.562 350.234 168.808 351.158 168.3C352.1 167.773 353.081 167.509 354.099 167.509C355.193 167.509 356.164 167.782 357.012 168.328C357.861 168.874 358.53 169.656 359.02 170.673C359.53 171.671 359.784 172.876 359.784 174.289C359.784 175.682 359.53 176.887 359.02 177.904C358.53 178.921 357.861 179.703 357.012 180.249C356.164 180.795 355.193 181.068 354.099 181.068C353.081 181.068 352.1 180.814 351.158 180.305C350.234 179.778 349.47 179.015 348.867 178.017C348.282 177 347.99 175.757 347.99 174.289ZM353.137 174.289C353.137 174.853 353.26 175.362 353.505 175.814C353.75 176.266 354.08 176.614 354.495 176.859C354.91 177.104 355.362 177.226 355.853 177.226C356.286 177.226 356.711 177.113 357.125 176.887C357.54 176.643 357.88 176.304 358.144 175.87C358.408 175.437 358.54 174.91 358.54 174.289C358.54 173.667 358.408 173.14 358.144 172.707C357.88 172.274 357.54 171.944 357.125 171.718C356.711 171.473 356.286 171.351 355.853 171.351C355.362 171.351 354.91 171.473 354.495 171.718C354.08 171.963 353.75 172.311 353.505 172.763C353.26 173.196 353.137 173.705 353.137 174.289Z" fill="#EC5858"/>
<path d="M370.5 176.718C370.5 177 370.566 177.245 370.698 177.452C370.848 177.641 371.046 177.791 371.291 177.904C371.537 177.998 371.801 178.045 372.083 178.045C372.498 178.045 372.894 177.961 373.271 177.791C373.648 177.603 373.95 177.32 374.176 176.944C374.421 176.548 374.544 176.059 374.544 175.475L374.997 177.17C374.997 177.998 374.78 178.705 374.346 179.288C373.931 179.872 373.356 180.315 372.621 180.616C371.904 180.917 371.112 181.068 370.245 181.068C369.415 181.068 368.642 180.917 367.926 180.616C367.228 180.296 366.662 179.835 366.229 179.232C365.795 178.61 365.578 177.857 365.578 176.972C365.578 175.729 366.012 174.75 366.879 174.034C367.765 173.319 369.038 172.961 370.698 172.961C371.414 172.961 372.083 173.027 372.706 173.159C373.347 173.29 373.903 173.469 374.374 173.695C374.865 173.902 375.232 174.138 375.477 174.402V176.464C375.1 176.143 374.629 175.899 374.063 175.729C373.498 175.56 372.904 175.475 372.281 175.475C371.848 175.475 371.499 175.522 371.235 175.616C370.971 175.71 370.782 175.852 370.669 176.04C370.556 176.209 370.5 176.435 370.5 176.718ZM368.124 172.057L366.568 168.865C367.398 168.507 368.35 168.178 369.425 167.876C370.518 167.556 371.678 167.396 372.904 167.396C374.092 167.396 375.157 167.566 376.1 167.905C377.061 168.225 377.816 168.705 378.362 169.345C378.928 169.985 379.211 170.767 379.211 171.69V180.786H374.544V172.848C374.544 172.565 374.497 172.311 374.403 172.085C374.327 171.859 374.195 171.671 374.007 171.52C373.818 171.351 373.573 171.228 373.271 171.153C372.97 171.059 372.621 171.012 372.225 171.012C371.678 171.012 371.112 171.078 370.528 171.21C369.962 171.341 369.462 171.492 369.029 171.661C368.595 171.831 368.293 171.963 368.124 172.057Z" fill="#EC5858"/>
<path d="M380.814 167.792H390.175V171.746H380.814V167.792ZM383.161 163.272H387.828V180.786H383.161V163.272Z" fill="#EC5858"/>
<path d="M395.855 176.718C395.855 177 395.921 177.245 396.053 177.452C396.204 177.641 396.402 177.791 396.647 177.904C396.892 177.998 397.156 178.045 397.439 178.045C397.854 178.045 398.25 177.961 398.627 177.791C399.004 177.603 399.306 177.32 399.532 176.944C399.777 176.548 399.9 176.059 399.9 175.475L400.352 177.17C400.352 177.998 400.135 178.705 399.702 179.288C399.287 179.872 398.712 180.315 397.977 180.616C397.26 180.917 396.468 181.068 395.601 181.068C394.771 181.068 393.998 180.917 393.281 180.616C392.584 180.296 392.018 179.835 391.584 179.232C391.151 178.61 390.934 177.857 390.934 176.972C390.934 175.729 391.368 174.75 392.235 174.034C393.121 173.319 394.394 172.961 396.053 172.961C396.77 172.961 397.439 173.027 398.061 173.159C398.702 173.29 399.259 173.469 399.73 173.695C400.22 173.902 400.588 174.138 400.833 174.402V176.464C400.456 176.143 399.985 175.899 399.419 175.729C398.853 175.56 398.259 175.475 397.637 175.475C397.203 175.475 396.855 175.522 396.591 175.616C396.327 175.71 396.138 175.852 396.025 176.04C395.912 176.209 395.855 176.435 395.855 176.718ZM393.479 172.057L391.924 168.865C392.753 168.507 393.706 168.178 394.78 167.876C395.874 167.556 397.034 167.396 398.259 167.396C399.447 167.396 400.513 167.566 401.455 167.905C402.417 168.225 403.171 168.705 403.718 169.345C404.284 169.985 404.567 170.767 404.567 171.69V180.786H399.9V172.848C399.9 172.565 399.853 172.311 399.758 172.085C399.683 171.859 399.551 171.671 399.362 171.52C399.174 171.351 398.929 171.228 398.627 171.153C398.325 171.059 397.977 171.012 397.581 171.012C397.034 171.012 396.468 171.078 395.883 171.21C395.318 171.341 394.818 171.492 394.384 171.661C393.951 171.831 393.649 171.963 393.479 172.057Z" fill="#EC5858"/>
<path d="M407.696 178.639C407.696 177.829 407.97 177.142 408.517 176.577C409.082 175.993 409.808 175.701 410.695 175.701C411.581 175.701 412.297 175.993 412.844 176.577C413.391 177.142 413.664 177.829 413.664 178.639C413.664 179.43 413.391 180.117 412.844 180.701C412.297 181.266 411.581 181.548 410.695 181.548C409.808 181.548 409.082 181.266 408.517 180.701C407.97 180.117 407.696 179.43 407.696 178.639Z" fill="#EC5858"/>
<path d="M252.697 146.888V142.933H251V146.888H252.697Z" fill="#464646"/>
<path d="M256.697 146.888L256.697 144.063H255L255 146.888H256.697Z" fill="#464646"/>
<path d="M264.697 146.888V142.933H263V146.888H264.697Z" fill="#464646"/>
<path d="M260.697 146.888L260.697 144.063H259L259 146.888H260.697Z" fill="#464646"/>
<path d="M244.697 146.888L244.697 144.063H243L243 146.888H244.697Z" fill="#464646"/>
<path d="M248.697 146.888L248.697 144.063H247V146.888H248.697Z" fill="#464646"/>
<path d="M228.697 146.888V142.933H227V146.888H228.697Z" fill="#464646"/>
<path d="M232.697 146.888L232.697 144.063H231L231 146.888H232.697Z" fill="#464646"/>
<path d="M240.697 146.888V142.933H239V146.888H240.697Z" fill="#464646"/>
<path d="M236.697 146.888L236.697 144.063H235L235 146.888H236.697Z" fill="#464646"/>
<path d="M220.697 146.888L220.697 144.063H219L219 146.888H220.697Z" fill="#464646"/>
<path d="M224.697 146.888L224.697 144.063H223V146.888H224.697Z" fill="#464646"/>
</svg>
