<svg width="512" height="202" viewBox="0 0 512 202" fill="none" xmlns="http://www.w3.org/2000/svg">
<path d="M25.8979 167.6H33.0659L25.1299 181.04V190H18.7939V181.104L10.8259 167.6H17.9939L21.9619 175.44L25.8979 167.6ZM30.7889 182.64C30.7889 181.061 31.1622 179.696 31.9089 178.544C32.6555 177.392 33.6795 176.507 34.9809 175.888C36.3035 175.248 37.7862 174.928 39.4289 174.928C41.0929 174.928 42.5755 175.248 43.8769 175.888C45.1782 176.507 46.2022 177.392 46.9489 178.544C47.7169 179.696 48.1009 181.061 48.1009 182.64C48.1009 184.197 47.7169 185.552 46.9489 186.704C46.2022 187.856 45.1782 188.752 43.8769 189.392C42.5755 190.011 41.0929 190.32 39.4289 190.32C37.7862 190.32 36.3035 190.011 34.9809 189.392C33.6795 188.752 32.6555 187.856 31.9089 186.704C31.1622 185.552 30.7889 184.197 30.7889 182.64ZM36.4849 182.64C36.4849 183.323 36.6129 183.909 36.8689 184.4C37.1462 184.869 37.5089 185.232 37.9569 185.488C38.4049 185.723 38.8955 185.84 39.4289 185.84C39.9622 185.84 40.4529 185.723 40.9009 185.488C41.3489 185.232 41.7115 184.869 41.9889 184.4C42.2662 183.909 42.4049 183.323 42.4049 182.64C42.4049 181.957 42.2662 181.381 41.9889 180.912C41.7115 180.421 41.3489 180.048 40.9009 179.792C40.4529 179.536 39.9622 179.408 39.4289 179.408C38.8955 179.408 38.4049 179.536 37.9569 179.792C37.5089 180.048 37.1462 180.421 36.8689 180.912C36.6129 181.381 36.4849 181.957 36.4849 182.64ZM56.6301 184.24C56.6301 185.008 56.7581 185.605 57.0141 186.032C57.2701 186.437 57.7501 186.64 58.4541 186.64C58.9235 186.64 59.3181 186.555 59.6381 186.384C59.9581 186.213 60.2035 185.947 60.3741 185.584C60.5661 185.221 60.6621 184.773 60.6621 184.24V175.28H66.1981V190H60.6621V187.824C60.2355 188.592 59.6488 189.211 58.9021 189.68C58.1768 190.128 57.2595 190.352 56.1501 190.352C54.2301 190.352 52.8648 189.872 52.0541 188.912C51.2435 187.931 50.8381 186.565 50.8381 184.816V175.28H56.6301V184.24ZM75.1211 175.28V190H69.7131V175.28H75.1211ZM79.3131 180.944C79.0785 180.688 78.8118 180.485 78.5131 180.336C78.2358 180.165 77.8838 180.08 77.4571 180.08C77.0305 180.08 76.6358 180.197 76.2731 180.432C75.9105 180.667 75.6225 181.019 75.4091 181.488C75.2171 181.957 75.1211 182.544 75.1211 183.248L73.9691 181.04C73.9691 179.867 74.2038 178.821 74.6731 177.904C75.1425 176.987 75.7611 176.261 76.5291 175.728C77.3185 175.173 78.1398 174.896 78.9931 174.896C79.5265 174.896 80.0385 175.024 80.5291 175.28C81.0198 175.515 81.3825 175.813 81.6171 176.176L79.3131 180.944ZM93.9514 184.4C94.8474 185.083 95.626 185.595 96.2874 185.936C96.9487 186.277 97.514 186.501 97.9834 186.608C98.4527 186.715 98.8154 186.768 99.0714 186.768C99.4767 186.768 99.7754 186.683 99.9674 186.512C100.159 186.341 100.255 186.107 100.255 185.808C100.255 185.552 100.17 185.339 99.9994 185.168C99.85 184.976 99.5514 184.784 99.1034 184.592C98.6767 184.4 98.0367 184.165 97.1834 183.888C96.4794 183.653 95.8074 183.365 95.1674 183.024C94.5274 182.661 94.0047 182.181 93.5994 181.584C93.2154 180.965 93.0234 180.176 93.0234 179.216C93.0234 178.299 93.2687 177.531 93.7594 176.912C94.25 176.272 94.922 175.792 95.7754 175.472C96.6287 175.131 97.6207 174.96 98.7514 174.96C99.626 174.96 100.437 175.056 101.183 175.248C101.951 175.419 102.677 175.653 103.359 175.952C104.042 176.229 104.714 176.56 105.375 176.944L103.743 180.624C103.061 180.027 102.293 179.547 101.439 179.184C100.607 178.8 99.8714 178.608 99.2314 178.608C98.826 178.608 98.5274 178.683 98.3354 178.832C98.1647 178.981 98.0794 179.163 98.0794 179.376C98.0794 179.675 98.2074 179.92 98.4634 180.112C98.7194 180.283 99.1034 180.453 99.6154 180.624C100.127 180.795 100.778 181.029 101.567 181.328C102.314 181.605 102.997 181.925 103.615 182.288C104.255 182.629 104.767 183.077 105.151 183.632C105.557 184.187 105.759 184.923 105.759 185.84C105.759 187.504 105.258 188.731 104.255 189.52C103.274 190.309 101.877 190.704 100.063 190.704C98.9754 190.704 97.9514 190.597 96.9914 190.384C96.0527 190.171 95.1674 189.872 94.3354 189.488C93.5034 189.104 92.7034 188.667 91.9354 188.176L93.9514 184.4ZM107.829 169.936C107.829 169.083 108.128 168.389 108.725 167.856C109.344 167.323 110.08 167.056 110.933 167.056C111.808 167.056 112.544 167.323 113.141 167.856C113.76 168.389 114.069 169.083 114.069 169.936C114.069 170.768 113.76 171.451 113.141 171.984C112.544 172.517 111.808 172.784 110.933 172.784C110.08 172.784 109.344 172.517 108.725 171.984C108.128 171.451 107.829 170.768 107.829 169.936ZM108.277 175.28H113.589V190H108.277V175.28ZM123.229 180.272H117.405V175.28H132.285L125.469 185.008H131.133V190H115.933L123.229 180.272ZM142.057 190.32C140.244 190.32 138.676 190.011 137.353 189.392C136.052 188.752 135.049 187.867 134.345 186.736C133.641 185.584 133.289 184.219 133.289 182.64C133.289 181.04 133.63 179.675 134.313 178.544C134.996 177.392 135.977 176.507 137.257 175.888C138.537 175.269 140.073 174.96 141.865 174.96C143.657 174.96 145.161 175.248 146.377 175.824C147.593 176.4 148.521 177.243 149.161 178.352C149.801 179.44 150.121 180.784 150.121 182.384C150.121 182.64 150.11 182.896 150.089 183.152C150.089 183.387 150.078 183.6 150.057 183.792H136.329V180.944H145.001L143.817 182.416C143.924 182.245 144.02 182.053 144.105 181.84C144.19 181.627 144.233 181.445 144.233 181.296C144.233 180.699 144.126 180.197 143.913 179.792C143.721 179.365 143.433 179.045 143.049 178.832C142.686 178.597 142.249 178.48 141.737 178.48C141.097 178.48 140.564 178.629 140.137 178.928C139.71 179.227 139.39 179.685 139.177 180.304C138.964 180.901 138.857 181.669 138.857 182.608C138.836 183.44 138.942 184.144 139.177 184.72C139.412 185.296 139.753 185.744 140.201 186.064C140.649 186.363 141.204 186.512 141.865 186.512C142.676 186.512 143.358 186.373 143.913 186.096C144.489 185.797 144.937 185.371 145.257 184.816L150.249 185.808C149.46 187.323 148.382 188.453 147.017 189.2C145.673 189.947 144.02 190.32 142.057 190.32ZM151.497 187.568C151.497 186.651 151.807 185.872 152.425 185.232C153.065 184.571 153.887 184.24 154.889 184.24C155.892 184.24 156.703 184.571 157.321 185.232C157.94 185.872 158.249 186.651 158.249 187.568C158.249 188.464 157.94 189.243 157.321 189.904C156.703 190.544 155.892 190.864 154.889 190.864C153.887 190.864 153.065 190.544 152.425 189.904C151.807 189.243 151.497 188.464 151.497 187.568ZM184.71 167.6H191.878L183.942 181.04V190H177.606V181.104L169.638 167.6H176.806L180.774 175.44L184.71 167.6ZM189.601 182.64C189.601 181.061 189.975 179.696 190.721 178.544C191.468 177.392 192.492 176.507 193.793 175.888C195.116 175.248 196.599 174.928 198.241 174.928C199.905 174.928 201.388 175.248 202.689 175.888C203.991 176.507 205.015 177.392 205.761 178.544C206.529 179.696 206.913 181.061 206.913 182.64C206.913 184.197 206.529 185.552 205.761 186.704C205.015 187.856 203.991 188.752 202.689 189.392C201.388 190.011 199.905 190.32 198.241 190.32C196.599 190.32 195.116 190.011 193.793 189.392C192.492 188.752 191.468 187.856 190.721 186.704C189.975 185.552 189.601 184.197 189.601 182.64ZM195.297 182.64C195.297 183.323 195.425 183.909 195.681 184.4C195.959 184.869 196.321 185.232 196.769 185.488C197.217 185.723 197.708 185.84 198.241 185.84C198.775 185.84 199.265 185.723 199.713 185.488C200.161 185.232 200.524 184.869 200.801 184.4C201.079 183.909 201.217 183.323 201.217 182.64C201.217 181.957 201.079 181.381 200.801 180.912C200.524 180.421 200.161 180.048 199.713 179.792C199.265 179.536 198.775 179.408 198.241 179.408C197.708 179.408 197.217 179.536 196.769 179.792C196.321 180.048 195.959 180.421 195.681 180.912C195.425 181.381 195.297 181.957 195.297 182.64ZM215.443 184.24C215.443 185.008 215.571 185.605 215.827 186.032C216.083 186.437 216.563 186.64 217.267 186.64C217.736 186.64 218.131 186.555 218.451 186.384C218.771 186.213 219.016 185.947 219.187 185.584C219.379 185.221 219.475 184.773 219.475 184.24V175.28H225.011V190H219.475V187.824C219.048 188.592 218.461 189.211 217.715 189.68C216.989 190.128 216.072 190.352 214.963 190.352C213.043 190.352 211.677 189.872 210.867 188.912C210.056 187.931 209.651 186.565 209.651 184.816V175.28H215.443V184.24ZM233.934 175.28V190H228.526V175.28H233.934ZM238.126 180.944C237.891 180.688 237.624 180.485 237.326 180.336C237.048 180.165 236.696 180.08 236.27 180.08C235.843 180.08 235.448 180.197 235.086 180.432C234.723 180.667 234.435 181.019 234.222 181.488C234.03 181.957 233.934 182.544 233.934 183.248L232.782 181.04C232.782 179.867 233.016 178.821 233.486 177.904C233.955 176.987 234.574 176.261 235.342 175.728C236.131 175.173 236.952 174.896 237.806 174.896C238.339 174.896 238.851 175.024 239.342 175.28C239.832 175.515 240.195 175.813 240.43 176.176L238.126 180.944ZM263.1 165.04H268.636V190H263.1V165.04ZM251.164 182.64C251.164 180.955 251.495 179.547 252.156 178.416C252.839 177.285 253.703 176.432 254.748 175.856C255.815 175.259 256.924 174.96 258.076 174.96C259.313 174.96 260.412 175.269 261.372 175.888C262.332 176.507 263.089 177.392 263.644 178.544C264.22 179.675 264.508 181.04 264.508 182.64C264.508 184.219 264.22 185.584 263.644 186.736C263.089 187.888 262.332 188.773 261.372 189.392C260.412 190.011 259.313 190.32 258.076 190.32C256.924 190.32 255.815 190.032 254.748 189.456C253.703 188.859 252.839 187.995 252.156 186.864C251.495 185.712 251.164 184.304 251.164 182.64ZM256.988 182.64C256.988 183.28 257.127 183.856 257.404 184.368C257.681 184.88 258.055 185.275 258.524 185.552C258.993 185.829 259.505 185.968 260.06 185.968C260.551 185.968 261.031 185.84 261.5 185.584C261.969 185.307 262.353 184.923 262.652 184.432C262.951 183.941 263.1 183.344 263.1 182.64C263.1 181.936 262.951 181.339 262.652 180.848C262.353 180.357 261.969 179.984 261.5 179.728C261.031 179.451 260.551 179.312 260.06 179.312C259.505 179.312 258.993 179.451 258.524 179.728C258.055 180.005 257.681 180.4 257.404 180.912C257.127 181.403 256.988 181.979 256.988 182.64ZM276.631 185.392C276.631 185.712 276.706 185.989 276.855 186.224C277.026 186.437 277.25 186.608 277.527 186.736C277.805 186.843 278.103 186.896 278.423 186.896C278.893 186.896 279.341 186.8 279.767 186.608C280.194 186.395 280.535 186.075 280.791 185.648C281.069 185.2 281.207 184.645 281.207 183.984L281.719 185.904C281.719 186.843 281.474 187.643 280.983 188.304C280.514 188.965 279.863 189.467 279.031 189.808C278.221 190.149 277.325 190.32 276.343 190.32C275.405 190.32 274.53 190.149 273.719 189.808C272.93 189.445 272.29 188.923 271.799 188.24C271.309 187.536 271.063 186.683 271.063 185.68C271.063 184.272 271.554 183.163 272.535 182.352C273.538 181.541 274.978 181.136 276.855 181.136C277.666 181.136 278.423 181.211 279.127 181.36C279.853 181.509 280.482 181.712 281.015 181.968C281.57 182.203 281.986 182.469 282.263 182.768V185.104C281.837 184.741 281.303 184.464 280.663 184.272C280.023 184.08 279.351 183.984 278.647 183.984C278.157 183.984 277.762 184.037 277.463 184.144C277.165 184.251 276.951 184.411 276.823 184.624C276.695 184.816 276.631 185.072 276.631 185.392ZM273.943 180.112L272.183 176.496C273.122 176.091 274.199 175.717 275.415 175.376C276.653 175.013 277.965 174.832 279.351 174.832C280.695 174.832 281.901 175.024 282.967 175.408C284.055 175.771 284.909 176.315 285.527 177.04C286.167 177.765 286.487 178.651 286.487 179.696V190H281.207V181.008C281.207 180.688 281.154 180.4 281.047 180.144C280.962 179.888 280.813 179.675 280.599 179.504C280.386 179.312 280.109 179.173 279.767 179.088C279.426 178.981 279.031 178.928 278.583 178.928C277.965 178.928 277.325 179.003 276.663 179.152C276.023 179.301 275.458 179.472 274.967 179.664C274.477 179.856 274.135 180.005 273.943 180.112ZM288.301 175.28H298.893V179.76H288.301V175.28ZM290.957 170.16H296.237V190H290.957V170.16ZM305.319 185.392C305.319 185.712 305.394 185.989 305.543 186.224C305.714 186.437 305.938 186.608 306.215 186.736C306.492 186.843 306.791 186.896 307.111 186.896C307.58 186.896 308.028 186.8 308.455 186.608C308.882 186.395 309.223 186.075 309.479 185.648C309.756 185.2 309.895 184.645 309.895 183.984L310.407 185.904C310.407 186.843 310.162 187.643 309.671 188.304C309.202 188.965 308.551 189.467 307.719 189.808C306.908 190.149 306.012 190.32 305.031 190.32C304.092 190.32 303.218 190.149 302.407 189.808C301.618 189.445 300.978 188.923 300.487 188.24C299.996 187.536 299.751 186.683 299.751 185.68C299.751 184.272 300.242 183.163 301.223 182.352C302.226 181.541 303.666 181.136 305.543 181.136C306.354 181.136 307.111 181.211 307.815 181.36C308.54 181.509 309.17 181.712 309.703 181.968C310.258 182.203 310.674 182.469 310.951 182.768V185.104C310.524 184.741 309.991 184.464 309.351 184.272C308.711 184.08 308.039 183.984 307.335 183.984C306.844 183.984 306.45 184.037 306.151 184.144C305.852 184.251 305.639 184.411 305.511 184.624C305.383 184.816 305.319 185.072 305.319 185.392ZM302.631 180.112L300.871 176.496C301.81 176.091 302.887 175.717 304.103 175.376C305.34 175.013 306.652 174.832 308.039 174.832C309.383 174.832 310.588 175.024 311.655 175.408C312.743 175.771 313.596 176.315 314.215 177.04C314.855 177.765 315.175 178.651 315.175 179.696V190H309.895V181.008C309.895 180.688 309.842 180.4 309.735 180.144C309.65 179.888 309.5 179.675 309.287 179.504C309.074 179.312 308.796 179.173 308.455 179.088C308.114 178.981 307.719 178.928 307.271 178.928C306.652 178.928 306.012 179.003 305.351 179.152C304.711 179.301 304.146 179.472 303.655 179.664C303.164 179.856 302.823 180.005 302.631 180.112ZM318.716 187.568C318.716 186.651 319.025 185.872 319.644 185.232C320.284 184.571 321.105 184.24 322.108 184.24C323.111 184.24 323.921 184.571 324.54 185.232C325.159 185.872 325.468 186.651 325.468 187.568C325.468 188.464 325.159 189.243 324.54 189.904C323.921 190.544 323.111 190.864 322.108 190.864C321.105 190.864 320.284 190.544 319.644 189.904C319.025 189.243 318.716 188.464 318.716 187.568ZM339.257 167.6H345.465V184.72H354.521V190H339.257V167.6ZM364.338 190.32C362.525 190.32 360.957 190.011 359.634 189.392C358.333 188.752 357.33 187.867 356.626 186.736C355.922 185.584 355.57 184.219 355.57 182.64C355.57 181.04 355.911 179.675 356.594 178.544C357.277 177.392 358.258 176.507 359.538 175.888C360.818 175.269 362.354 174.96 364.146 174.96C365.938 174.96 367.442 175.248 368.658 175.824C369.874 176.4 370.802 177.243 371.442 178.352C372.082 179.44 372.402 180.784 372.402 182.384C372.402 182.64 372.391 182.896 372.37 183.152C372.37 183.387 372.359 183.6 372.338 183.792H358.61V180.944H367.282L366.098 182.416C366.205 182.245 366.301 182.053 366.386 181.84C366.471 181.627 366.514 181.445 366.514 181.296C366.514 180.699 366.407 180.197 366.194 179.792C366.002 179.365 365.714 179.045 365.33 178.832C364.967 178.597 364.53 178.48 364.018 178.48C363.378 178.48 362.845 178.629 362.418 178.928C361.991 179.227 361.671 179.685 361.458 180.304C361.245 180.901 361.138 181.669 361.138 182.608C361.117 183.44 361.223 184.144 361.458 184.72C361.693 185.296 362.034 185.744 362.482 186.064C362.93 186.363 363.485 186.512 364.146 186.512C364.957 186.512 365.639 186.373 366.194 186.096C366.77 185.797 367.218 185.371 367.538 184.816L372.53 185.808C371.741 187.323 370.663 188.453 369.298 189.2C367.954 189.947 366.301 190.32 364.338 190.32ZM376.076 184.4C376.972 185.083 377.751 185.595 378.412 185.936C379.074 186.277 379.639 186.501 380.108 186.608C380.578 186.715 380.94 186.768 381.196 186.768C381.602 186.768 381.9 186.683 382.092 186.512C382.284 186.341 382.38 186.107 382.38 185.808C382.38 185.552 382.295 185.339 382.124 185.168C381.975 184.976 381.676 184.784 381.228 184.592C380.802 184.4 380.162 184.165 379.308 183.888C378.604 183.653 377.932 183.365 377.292 183.024C376.652 182.661 376.13 182.181 375.724 181.584C375.34 180.965 375.148 180.176 375.148 179.216C375.148 178.299 375.394 177.531 375.884 176.912C376.375 176.272 377.047 175.792 377.9 175.472C378.754 175.131 379.746 174.96 380.876 174.96C381.751 174.96 382.562 175.056 383.308 175.248C384.076 175.419 384.802 175.653 385.484 175.952C386.167 176.229 386.839 176.56 387.5 176.944L385.868 180.624C385.186 180.027 384.418 179.547 383.564 179.184C382.732 178.8 381.996 178.608 381.356 178.608C380.951 178.608 380.652 178.683 380.46 178.832C380.29 178.981 380.204 179.163 380.204 179.376C380.204 179.675 380.332 179.92 380.588 180.112C380.844 180.283 381.228 180.453 381.74 180.624C382.252 180.795 382.903 181.029 383.692 181.328C384.439 181.605 385.122 181.925 385.74 182.288C386.38 182.629 386.892 183.077 387.276 183.632C387.682 184.187 387.884 184.923 387.884 185.84C387.884 187.504 387.383 188.731 386.38 189.52C385.399 190.309 384.002 190.704 382.188 190.704C381.1 190.704 380.076 190.597 379.116 190.384C378.178 190.171 377.292 189.872 376.46 189.488C375.628 189.104 374.828 188.667 374.06 188.176L376.076 184.4ZM391.17 184.4C392.066 185.083 392.845 185.595 393.506 185.936C394.167 186.277 394.733 186.501 395.202 186.608C395.671 186.715 396.034 186.768 396.29 186.768C396.695 186.768 396.994 186.683 397.186 186.512C397.378 186.341 397.474 186.107 397.474 185.808C397.474 185.552 397.389 185.339 397.218 185.168C397.069 184.976 396.77 184.784 396.322 184.592C395.895 184.4 395.255 184.165 394.402 183.888C393.698 183.653 393.026 183.365 392.386 183.024C391.746 182.661 391.223 182.181 390.818 181.584C390.434 180.965 390.242 180.176 390.242 179.216C390.242 178.299 390.487 177.531 390.978 176.912C391.469 176.272 392.141 175.792 392.994 175.472C393.847 175.131 394.839 174.96 395.97 174.96C396.845 174.96 397.655 175.056 398.402 175.248C399.17 175.419 399.895 175.653 400.578 175.952C401.261 176.229 401.933 176.56 402.594 176.944L400.962 180.624C400.279 180.027 399.511 179.547 398.658 179.184C397.826 178.8 397.09 178.608 396.45 178.608C396.045 178.608 395.746 178.683 395.554 178.832C395.383 178.981 395.298 179.163 395.298 179.376C395.298 179.675 395.426 179.92 395.682 180.112C395.938 180.283 396.322 180.453 396.834 180.624C397.346 180.795 397.997 181.029 398.786 181.328C399.533 181.605 400.215 181.925 400.834 182.288C401.474 182.629 401.986 183.077 402.37 183.632C402.775 184.187 402.978 184.923 402.978 185.84C402.978 187.504 402.477 188.731 401.474 189.52C400.493 190.309 399.095 190.704 397.282 190.704C396.194 190.704 395.17 190.597 394.21 190.384C393.271 190.171 392.386 189.872 391.554 189.488C390.722 189.104 389.922 188.667 389.154 188.176L391.17 184.4ZM412.914 175.28H418.642L421.522 182.224L425.81 174.16L430.13 182.224L433.01 175.28H438.738L430.802 190.864L425.81 182.704L420.85 190.864L412.914 175.28ZM444.663 185.392C444.663 185.712 444.737 185.989 444.887 186.224C445.057 186.437 445.281 186.608 445.559 186.736C445.836 186.843 446.135 186.896 446.455 186.896C446.924 186.896 447.372 186.8 447.799 186.608C448.225 186.395 448.567 186.075 448.823 185.648C449.1 185.2 449.239 184.645 449.239 183.984L449.751 185.904C449.751 186.843 449.505 187.643 449.015 188.304C448.545 188.965 447.895 189.467 447.063 189.808C446.252 190.149 445.356 190.32 444.375 190.32C443.436 190.32 442.561 190.149 441.751 189.808C440.961 189.445 440.321 188.923 439.831 188.24C439.34 187.536 439.095 186.683 439.095 185.68C439.095 184.272 439.585 183.163 440.567 182.352C441.569 181.541 443.009 181.136 444.887 181.136C445.697 181.136 446.455 181.211 447.159 181.36C447.884 181.509 448.513 181.712 449.047 181.968C449.601 182.203 450.017 182.469 450.295 182.768V185.104C449.868 184.741 449.335 184.464 448.695 184.272C448.055 184.08 447.383 183.984 446.679 183.984C446.188 183.984 445.793 184.037 445.495 184.144C445.196 184.251 444.983 184.411 444.855 184.624C444.727 184.816 444.663 185.072 444.663 185.392ZM441.975 180.112L440.215 176.496C441.153 176.091 442.231 175.717 443.447 175.376C444.684 175.013 445.996 174.832 447.383 174.832C448.727 174.832 449.932 175.024 450.999 175.408C452.087 175.771 452.94 176.315 453.559 177.04C454.199 177.765 454.519 178.651 454.519 179.696V190H449.239V181.008C449.239 180.688 449.185 180.4 449.079 180.144C448.993 179.888 448.844 179.675 448.631 179.504C448.417 179.312 448.14 179.173 447.799 179.088C447.457 178.981 447.063 178.928 446.615 178.928C445.996 178.928 445.356 179.003 444.695 179.152C444.055 179.301 443.489 179.472 442.999 179.664C442.508 179.856 442.167 180.005 441.975 180.112ZM458.764 184.4C459.66 185.083 460.439 185.595 461.1 185.936C461.761 186.277 462.327 186.501 462.796 186.608C463.265 186.715 463.628 186.768 463.884 186.768C464.289 186.768 464.588 186.683 464.78 186.512C464.972 186.341 465.068 186.107 465.068 185.808C465.068 185.552 464.983 185.339 464.812 185.168C464.663 184.976 464.364 184.784 463.916 184.592C463.489 184.4 462.849 184.165 461.996 183.888C461.292 183.653 460.62 183.365 459.98 183.024C459.34 182.661 458.817 182.181 458.412 181.584C458.028 180.965 457.836 180.176 457.836 179.216C457.836 178.299 458.081 177.531 458.572 176.912C459.063 176.272 459.735 175.792 460.588 175.472C461.441 175.131 462.433 174.96 463.564 174.96C464.439 174.96 465.249 175.056 465.996 175.248C466.764 175.419 467.489 175.653 468.172 175.952C468.855 176.229 469.527 176.56 470.188 176.944L468.556 180.624C467.873 180.027 467.105 179.547 466.252 179.184C465.42 178.8 464.684 178.608 464.044 178.608C463.639 178.608 463.34 178.683 463.148 178.832C462.977 178.981 462.892 179.163 462.892 179.376C462.892 179.675 463.02 179.92 463.276 180.112C463.532 180.283 463.916 180.453 464.428 180.624C464.94 180.795 465.591 181.029 466.38 181.328C467.127 181.605 467.809 181.925 468.428 182.288C469.068 182.629 469.58 183.077 469.964 183.632C470.369 184.187 470.572 184.923 470.572 185.84C470.572 187.504 470.071 188.731 469.068 189.52C468.087 190.309 466.689 190.704 464.876 190.704C463.788 190.704 462.764 190.597 461.804 190.384C460.865 190.171 459.98 189.872 459.148 189.488C458.316 189.104 457.516 188.667 456.748 188.176L458.764 184.4ZM471.426 175.28H482.018V179.76H471.426V175.28ZM474.082 170.16H479.362V190H474.082V170.16ZM491.932 190.32C490.119 190.32 488.551 190.011 487.228 189.392C485.927 188.752 484.924 187.867 484.22 186.736C483.516 185.584 483.164 184.219 483.164 182.64C483.164 181.04 483.505 179.675 484.188 178.544C484.871 177.392 485.852 176.507 487.132 175.888C488.412 175.269 489.948 174.96 491.74 174.96C493.532 174.96 495.036 175.248 496.252 175.824C497.468 176.4 498.396 177.243 499.036 178.352C499.676 179.44 499.996 180.784 499.996 182.384C499.996 182.64 499.985 182.896 499.964 183.152C499.964 183.387 499.953 183.6 499.932 183.792H486.204V180.944H494.876L493.692 182.416C493.799 182.245 493.895 182.053 493.98 181.84C494.065 181.627 494.108 181.445 494.108 181.296C494.108 180.699 494.001 180.197 493.788 179.792C493.596 179.365 493.308 179.045 492.924 178.832C492.561 178.597 492.124 178.48 491.612 178.48C490.972 178.48 490.439 178.629 490.012 178.928C489.585 179.227 489.265 179.685 489.052 180.304C488.839 180.901 488.732 181.669 488.732 182.608C488.711 183.44 488.817 184.144 489.052 184.72C489.287 185.296 489.628 185.744 490.076 186.064C490.524 186.363 491.079 186.512 491.74 186.512C492.551 186.512 493.233 186.373 493.788 186.096C494.364 185.797 494.812 185.371 495.132 184.816L500.124 185.808C499.335 187.323 498.257 188.453 496.892 189.2C495.548 189.947 493.895 190.32 491.932 190.32Z" fill="#B8B1AA"/>
<g filter="url(#filter0_d_116_13)">
<path d="M123.408 0C133.197 0 142.535 1.73238 151.063 4.87436V37.61C144.177 32.2851 135.435 29.1 125.923 29.1C103.707 29.1 85.6972 46.4714 85.6972 67.9C85.6972 89.3286 103.707 106.7 125.923 106.7H151.063V116.4H156.092V130.95L151.389 130.918L151.063 130.95L131.389 130.95H123.408C122.574 130.975 124.25 130.95 123.408 130.95C75.3889 132.411 50.5 101.636 50.5 65.475C50.5 29.3142 83.1422 0 123.408 0Z" fill="#F4DBB1"/>
<path d="M156.092 130.95L151.389 130.918L151.063 130.95L131.389 130.95H123.408L156.092 130.95Z" fill="#F4DBB1"/>
<path d="M156.092 121.25H286.824V126.1H156.092V121.25Z" fill="#B8B1AA"/>
<path d="M286.824 121.25H289.338V130.95H286.824V121.25Z" fill="#B8B1AA"/>
<path d="M142.985 88.2312L143.468 77.1344H172.35L172.752 88.2312H142.985ZM157.708 64.9512L150.306 81.2472L151.272 84.584L144.755 97H127.056L157.708 39.0328L188.44 97H170.741L164.305 85.1272L165.19 81.2472L157.708 64.9512Z" fill="#F4DBB1"/>
<path d="M209.264 73.0216H225.273L242.168 97H223.986L209.264 73.0216ZM193.978 42.68H209.585V97H193.978V42.68ZM203.954 55.4064V42.68H216.102C221.251 42.68 225.488 43.456 228.813 45.008C232.192 46.56 234.686 48.7069 236.295 51.4488C237.958 54.1389 238.789 57.2688 238.789 60.8384C238.789 64.3563 237.958 67.512 236.295 70.3056C234.686 73.0475 232.192 75.1944 228.813 76.7464C225.488 78.2467 221.251 78.9968 216.102 78.9968H203.954V67.5896H214.815C216.477 67.5896 217.872 67.3568 218.998 66.8912C220.124 66.4256 220.982 65.7272 221.572 64.796C222.216 63.8648 222.538 62.7525 222.538 61.4592C222.538 60.1659 222.216 59.0795 221.572 58.2C220.982 57.2688 220.124 56.5704 218.998 56.1048C217.872 55.6392 216.477 55.4064 214.815 55.4064H203.954Z" fill="#F4DBB1"/>
<path d="M242.478 56.1048V42.68H289.622V56.1048H273.853V97H258.246V56.1048H242.478Z" fill="#F4DBB1"/>
<path d="M295.563 42.68H311.17V84.196H333.938V97H295.563V42.68Z" fill="#F4DBB1"/>
<path d="M352.204 88.2312L352.687 77.1344H381.569L381.971 88.2312H352.204ZM366.927 64.9512L359.525 81.2472L360.491 84.584L353.974 97H336.275L366.927 39.0328L397.659 97H379.96L373.524 85.1272L374.409 81.2472L366.927 64.9512Z" fill="#F4DBB1"/>
<path d="M429.16 77.8328V66.6584H458.364C458.74 71.1075 458.337 75.2979 457.157 79.2296C455.977 83.1613 454.127 86.6016 451.606 89.5504C449.085 92.4992 445.921 94.8272 442.113 96.5344C438.305 98.1899 433.934 99.0176 429 99.0176C424.441 99.0176 420.23 98.3192 416.369 96.9224C412.561 95.5256 409.235 93.5597 406.393 91.0248C403.604 88.4381 401.432 85.36 399.876 81.7904C398.321 78.1691 397.543 74.1856 397.543 69.84C397.543 65.4944 398.348 61.5627 399.957 58.0448C401.566 54.5269 403.818 51.5264 406.715 49.0432C409.611 46.5083 413.017 44.5941 416.932 43.3008C420.847 41.9557 425.084 41.2832 429.643 41.2832C433.773 41.2832 437.447 41.8781 440.665 43.068C443.937 44.2061 446.806 45.784 449.273 47.8016C451.74 49.7675 453.886 52.0179 455.709 54.5528L441.469 61.1488C440.343 59.1829 438.841 57.5275 436.964 56.1824C435.087 54.8373 432.647 54.1648 429.643 54.1648C426.801 54.1648 424.173 54.7597 421.759 55.9496C419.345 57.1395 417.415 58.8984 415.967 61.2264C414.572 63.5544 413.875 66.4256 413.875 69.84C413.875 73.2027 414.545 76.1256 415.886 78.6088C417.227 81.0403 419.077 82.9027 421.437 84.196C423.797 85.4893 426.532 86.136 429.643 86.136C431.52 86.136 433.183 85.9549 434.631 85.5928C436.079 85.1789 437.34 84.6099 438.412 83.8856C439.485 83.1096 440.397 82.2043 441.148 81.1696C441.952 80.1349 442.596 79.0227 443.078 77.8328H429.16Z" fill="#F4DBB1"/>
<path d="M275.12 126.1V122.705H273.611V126.1H275.12Z" fill="#545454"/>
<path d="M278.675 126.1L278.675 123.675H277.167L277.167 126.1H278.675Z" fill="#545454"/>
<path d="M285.786 126.1V122.705H284.278V126.1H285.786Z" fill="#545454"/>
<path d="M282.231 126.1L282.231 123.675H280.722L280.722 126.1H282.231Z" fill="#545454"/>
<path d="M268.008 126.1L268.008 123.675H266.5L266.5 126.1H268.008Z" fill="#545454"/>
<path d="M271.564 126.1L271.564 123.675H270.056V126.1H271.564Z" fill="#545454"/>
<path d="M253.786 126.1V122.705H252.278V126.1H253.786Z" fill="#545454"/>
<path d="M257.342 126.1L257.342 123.675H255.833L255.833 126.1H257.342Z" fill="#545454"/>
<path d="M264.453 126.1V122.705H262.945V126.1H264.453Z" fill="#545454"/>
<path d="M260.897 126.1L260.897 123.675H259.389L259.389 126.1H260.897Z" fill="#545454"/>
<path d="M246.675 126.1L246.675 123.675H245.167L245.167 126.1H246.675Z" fill="#545454"/>
<path d="M250.231 126.1L250.231 123.675H248.722V126.1H250.231Z" fill="#545454"/>
</g>
<defs>
<filter id="filter0_d_116_13" x="46.5" y="0" width="416" height="139" filterUnits="userSpaceOnUse" color-interpolation-filters="sRGB">
<feFlood flood-opacity="0" result="BackgroundImageFix"/>
<feColorMatrix in="SourceAlpha" type="matrix" values="0 0 0 0 0 0 0 0 0 0 0 0 0 0 0 0 0 0 127 0" result="hardAlpha"/>
<feOffset dy="4"/>
<feGaussianBlur stdDeviation="2"/>
<feComposite in2="hardAlpha" operator="out"/>
<feColorMatrix type="matrix" values="0 0 0 0 0 0 0 0 0 0 0 0 0 0 0 0 0 0 0.25 0"/>
<feBlend mode="normal" in2="BackgroundImageFix" result="effect1_dropShadow_116_13"/>
<feBlend mode="normal" in="SourceGraphic" in2="effect1_dropShadow_116_13" result="shape"/>
</filter>
</defs>
</svg>
