<svg width="512" height="200" viewBox="0 0 512 200" fill="none" xmlns="http://www.w3.org/2000/svg">
<path d="M87.5203 0C98.1966 0 108.382 1.94397 117.683 5.46971V42.2035C110.172 36.2283 100.638 32.6542 90.2623 32.6542C66.0318 32.6542 46.3891 52.1472 46.3891 76.1931C46.3891 100.239 66.0318 119.732 90.2623 119.732H117.683V130.617H123.167V146.944L118.038 146.908L117.683 146.944L96.2244 146.944H87.5203C86.61 146.972 88.438 146.944 87.5203 146.944C35.146 148.583 8 114.049 8 73.4719C8 32.8945 43.6024 0 87.5203 0Z" fill="#D94343"/>
<path d="M123.167 146.944L118.038 146.908L117.683 146.944L96.2244 146.944H87.5203L123.167 146.944Z" fill="#D94343"/>
<path d="M123.167 136.059H265.755V141.502H123.167V136.059Z" fill="#F7C542"/>
<path d="M265.755 136.059H268.497V146.944H265.755V136.059Z" fill="#F7C542"/>
<path d="M108.872 99.0075L109.399 86.5554H140.9L141.339 99.0075H108.872ZM124.93 72.8842L116.857 91.1705L117.91 94.9149L110.803 108.847H91.4987L124.93 43.8002L158.449 108.847H139.145L132.125 95.5244L133.09 91.1705L124.93 72.8842Z" fill="#D94343"/>
<path d="M181.161 81.9403H198.623L217.049 108.847H197.219L181.161 81.9403ZM164.489 47.8928H181.512V108.847H164.489V47.8928ZM175.37 62.1736V47.8928H188.62C194.235 47.8928 198.857 48.7636 202.484 50.5052C206.169 52.2467 208.889 54.6559 210.644 57.7326C212.457 60.7513 213.364 64.2635 213.364 68.269C213.364 72.2166 212.457 75.7577 210.644 78.8925C208.889 81.9693 206.169 84.3784 202.484 86.12C198.857 87.8035 194.235 88.6453 188.62 88.6453H175.37V75.8448H187.216C189.029 75.8448 190.55 75.5836 191.778 75.0611C193.007 74.5387 193.943 73.755 194.586 72.71C195.288 71.6651 195.639 70.417 195.639 68.9657C195.639 67.5144 195.288 66.2953 194.586 65.3084C193.943 64.2635 193.007 63.4798 191.778 62.9573C190.55 62.4348 189.029 62.1736 187.216 62.1736H175.37Z" fill="#D94343"/>
<path d="M217.387 62.9573V47.8928H268.807V62.9573H251.609V108.847H234.586V62.9573H217.387Z" fill="#D94343"/>
<path d="M275.286 47.8928H292.309V94.4795H317.141V108.847H275.286V47.8928Z" fill="#8CAECB"/>
<path d="M337.065 99.0075L337.591 86.5554H369.092L369.531 99.0075H337.065ZM353.122 72.8842L345.05 91.1705L346.103 94.9149L338.995 108.847H319.691L353.122 43.8002L386.642 108.847H367.337L360.318 95.5244L361.283 91.1705L353.122 72.8842Z" fill="#8CAECB"/>
<path d="M421 87.3391V74.7999H452.852C453.261 79.7923 452.822 84.4946 451.536 88.9065C450.249 93.3184 448.23 97.1789 445.481 100.488C442.732 103.797 439.28 106.409 435.127 108.325C430.974 110.183 426.206 111.111 420.824 111.111C415.852 111.111 411.26 110.328 407.048 108.76C402.895 107.193 399.268 104.987 396.168 102.142C393.126 99.2397 390.756 95.7857 389.06 91.7801C387.364 87.7164 386.515 83.2464 386.515 78.3701C386.515 73.4937 387.393 69.0818 389.148 65.1342C390.903 61.1867 393.36 57.8197 396.518 55.0332C399.677 52.1887 403.392 50.0407 407.662 48.5894C411.933 47.0801 416.554 46.3254 421.526 46.3254C426.031 46.3254 430.038 46.993 433.547 48.3282C437.116 49.6054 440.246 51.3759 442.936 53.64C445.627 55.8459 447.967 58.3712 449.956 61.2157L434.425 68.6174C433.197 66.4114 431.559 64.5537 429.511 63.0444C427.464 61.535 424.802 60.7803 421.526 60.7803C418.426 60.7803 415.56 61.4479 412.927 62.7831C410.295 64.1183 408.189 66.0921 406.609 68.7044C405.088 71.3168 404.328 74.5387 404.328 78.3701C404.328 82.1435 405.059 85.4234 406.522 88.2099C407.984 90.9383 410.002 93.0282 412.576 94.4795C415.15 95.9308 418.133 96.6564 421.526 96.6564C423.574 96.6564 425.387 96.4533 426.967 96.0469C428.546 95.5825 429.921 94.9439 431.091 94.1312C432.261 93.2604 433.255 92.2445 434.074 91.0834C434.951 89.9224 435.653 88.6743 436.18 87.3391H421Z" fill="#8CAECB"/>
<path d="M252.989 141.502V137.692H251.344V141.502H252.989Z" fill="#1A1A1A"/>
<path d="M256.867 141.502L256.867 138.78H255.222L255.222 141.502H256.867Z" fill="#1A1A1A"/>
<path d="M264.623 141.502V137.692H262.978V141.502H264.623Z" fill="#1A1A1A"/>
<path d="M260.745 141.502L260.746 138.78H259.1L259.1 141.502H260.745Z" fill="#1A1A1A"/>
<path d="M245.234 141.502L245.233 138.78H243.588L243.588 141.502H245.234Z" fill="#1A1A1A"/>
<path d="M249.111 141.502L249.112 138.78H247.466V141.502H249.111Z" fill="#1A1A1A"/>
<path d="M229.722 141.502V137.692H228.076V141.502H229.722Z" fill="#1A1A1A"/>
<path d="M233.6 141.502L233.6 138.78H231.954L231.954 141.502H233.6Z" fill="#1A1A1A"/>
<path d="M241.356 141.502V137.692H239.71V141.502H241.356Z" fill="#1A1A1A"/>
<path d="M237.478 141.502L237.478 138.78H235.832L235.832 141.502H237.478Z" fill="#1A1A1A"/>
<path d="M221.966 141.502L221.966 138.78H220.32L220.32 141.502H221.966Z" fill="#1A1A1A"/>
<path d="M225.844 141.502L225.844 138.78H224.198V141.502H225.844Z" fill="#1A1A1A"/>
<path d="M31.7777 174.9H36.9297L31.2257 184.56V191H26.6717V184.606L20.9447 174.9H26.0967L28.9487 180.535L31.7777 174.9ZM35.2931 185.71C35.2931 184.575 35.5614 183.594 36.0981 182.766C36.6347 181.938 37.3707 181.302 38.3061 180.857C39.2567 180.397 40.3224 180.167 41.5031 180.167C42.6991 180.167 43.7647 180.397 44.7001 180.857C45.6354 181.302 46.3714 181.938 46.9081 182.766C47.4601 183.594 47.7361 184.575 47.7361 185.71C47.7361 186.829 47.4601 187.803 46.9081 188.631C46.3714 189.459 45.6354 190.103 44.7001 190.563C43.7647 191.008 42.6991 191.23 41.5031 191.23C40.3224 191.23 39.2567 191.008 38.3061 190.563C37.3707 190.103 36.6347 189.459 36.0981 188.631C35.5614 187.803 35.2931 186.829 35.2931 185.71ZM39.3871 185.71C39.3871 186.201 39.4791 186.622 39.6631 186.975C39.8624 187.312 40.1231 187.573 40.4451 187.757C40.7671 187.926 41.1197 188.01 41.5031 188.01C41.8864 188.01 42.2391 187.926 42.5611 187.757C42.8831 187.573 43.1437 187.312 43.3431 186.975C43.5424 186.622 43.6421 186.201 43.6421 185.71C43.6421 185.219 43.5424 184.805 43.3431 184.468C43.1437 184.115 42.8831 183.847 42.5611 183.663C42.2391 183.479 41.8864 183.387 41.5031 183.387C41.1197 183.387 40.7671 183.479 40.4451 183.663C40.1231 183.847 39.8624 184.115 39.6631 184.468C39.4791 184.805 39.3871 185.219 39.3871 185.71ZM53.8665 186.86C53.8665 187.412 53.9585 187.841 54.1425 188.148C54.3265 188.439 54.6715 188.585 55.1775 188.585C55.5148 188.585 55.7985 188.524 56.0285 188.401C56.2585 188.278 56.4348 188.087 56.5575 187.826C56.6955 187.565 56.7645 187.243 56.7645 186.86V180.42H60.7435V191H56.7645V189.436C56.4578 189.988 56.0361 190.433 55.4995 190.77C54.9781 191.092 54.3188 191.253 53.5215 191.253C52.1415 191.253 51.1601 190.908 50.5775 190.218C49.9948 189.513 49.7035 188.531 49.7035 187.274V180.42H53.8665V186.86ZM67.1569 180.42V191H63.2699V180.42H67.1569ZM70.1699 184.491C70.0012 184.307 69.8095 184.161 69.5949 184.054C69.3955 183.931 69.1425 183.87 68.8359 183.87C68.5292 183.87 68.2455 183.954 67.9849 184.123C67.7242 184.292 67.5172 184.545 67.3639 184.882C67.2259 185.219 67.1569 185.641 67.1569 186.147L66.3289 184.56C66.3289 183.717 66.4975 182.965 66.8349 182.306C67.1722 181.647 67.6169 181.125 68.1689 180.742C68.7362 180.343 69.3265 180.144 69.9399 180.144C70.3232 180.144 70.6912 180.236 71.0439 180.42C71.3965 180.589 71.6572 180.803 71.8259 181.064L70.1699 184.491ZM80.6911 186.975C81.3351 187.466 81.8948 187.834 82.3701 188.079C82.8455 188.324 83.2518 188.485 83.5891 188.562C83.9265 188.639 84.1871 188.677 84.3711 188.677C84.6625 188.677 84.8771 188.616 85.0151 188.493C85.1531 188.37 85.2221 188.202 85.2221 187.987C85.2221 187.803 85.1608 187.65 85.0381 187.527C84.9308 187.389 84.7161 187.251 84.3941 187.113C84.0875 186.975 83.6275 186.806 83.0141 186.607C82.5081 186.438 82.0251 186.231 81.5651 185.986C81.1051 185.725 80.7295 185.38 80.4381 184.951C80.1621 184.506 80.0241 183.939 80.0241 183.249C80.0241 182.59 80.2005 182.038 80.5531 181.593C80.9058 181.133 81.3888 180.788 82.0021 180.558C82.6155 180.313 83.3285 180.19 84.1411 180.19C84.7698 180.19 85.3525 180.259 85.8891 180.397C86.4411 180.52 86.9625 180.688 87.4531 180.903C87.9438 181.102 88.4268 181.34 88.9021 181.616L87.7291 184.261C87.2385 183.832 86.6865 183.487 86.0731 183.226C85.4751 182.95 84.9461 182.812 84.4861 182.812C84.1948 182.812 83.9801 182.866 83.8421 182.973C83.7195 183.08 83.6581 183.211 83.6581 183.364C83.6581 183.579 83.7501 183.755 83.9341 183.893C84.1181 184.016 84.3941 184.138 84.7621 184.261C85.1301 184.384 85.5978 184.552 86.1651 184.767C86.7018 184.966 87.1925 185.196 87.6371 185.457C88.0971 185.702 88.4651 186.024 88.7411 186.423C89.0325 186.822 89.1781 187.351 89.1781 188.01C89.1781 189.206 88.8178 190.088 88.0971 190.655C87.3918 191.222 86.3875 191.506 85.0841 191.506C84.3021 191.506 83.5661 191.429 82.8761 191.276C82.2015 191.123 81.5651 190.908 80.9671 190.632C80.3691 190.356 79.7941 190.042 79.2421 189.689L80.6911 186.975ZM90.6658 176.579C90.6658 175.966 90.8804 175.467 91.3098 175.084C91.7544 174.701 92.2834 174.509 92.8968 174.509C93.5254 174.509 94.0544 174.701 94.4838 175.084C94.9284 175.467 95.1508 175.966 95.1508 176.579C95.1508 177.177 94.9284 177.668 94.4838 178.051C94.0544 178.434 93.5254 178.626 92.8968 178.626C92.2834 178.626 91.7544 178.434 91.3098 178.051C90.8804 177.668 90.6658 177.177 90.6658 176.579ZM90.9878 180.42H94.8058V191H90.9878V180.42ZM101.735 184.008H97.5485V180.42H108.244L103.345 187.412H107.416V191H96.4905L101.735 184.008ZM115.267 191.23C113.964 191.23 112.837 191.008 111.886 190.563C110.951 190.103 110.23 189.467 109.724 188.654C109.218 187.826 108.965 186.845 108.965 185.71C108.965 184.56 109.21 183.579 109.701 182.766C110.192 181.938 110.897 181.302 111.817 180.857C112.737 180.412 113.841 180.19 115.129 180.19C116.417 180.19 117.498 180.397 118.372 180.811C119.246 181.225 119.913 181.831 120.373 182.628C120.833 183.41 121.063 184.376 121.063 185.526C121.063 185.71 121.055 185.894 121.04 186.078C121.04 186.247 121.032 186.4 121.017 186.538H111.15V184.491H117.383L116.532 185.549C116.609 185.426 116.678 185.288 116.739 185.135C116.8 184.982 116.831 184.851 116.831 184.744C116.831 184.315 116.754 183.954 116.601 183.663C116.463 183.356 116.256 183.126 115.98 182.973C115.719 182.804 115.405 182.72 115.037 182.72C114.577 182.72 114.194 182.827 113.887 183.042C113.58 183.257 113.35 183.586 113.197 184.031C113.044 184.46 112.967 185.012 112.967 185.687C112.952 186.285 113.028 186.791 113.197 187.205C113.366 187.619 113.611 187.941 113.933 188.171C114.255 188.386 114.654 188.493 115.129 188.493C115.712 188.493 116.202 188.393 116.601 188.194C117.015 187.979 117.337 187.673 117.567 187.274L121.155 187.987C120.588 189.076 119.813 189.888 118.832 190.425C117.866 190.962 116.678 191.23 115.267 191.23ZM122.052 189.252C122.052 188.593 122.275 188.033 122.719 187.573C123.179 187.098 123.77 186.86 124.49 186.86C125.211 186.86 125.794 187.098 126.238 187.573C126.683 188.033 126.905 188.593 126.905 189.252C126.905 189.896 126.683 190.456 126.238 190.931C125.794 191.391 125.211 191.621 124.49 191.621C123.77 191.621 123.179 191.391 122.719 190.931C122.275 190.456 122.052 189.896 122.052 189.252ZM145.924 174.9H151.076L145.372 184.56V191H140.818V184.606L135.091 174.9H140.243L143.095 180.535L145.924 174.9ZM149.44 185.71C149.44 184.575 149.708 183.594 150.245 182.766C150.781 181.938 151.517 181.302 152.453 180.857C153.403 180.397 154.469 180.167 155.65 180.167C156.846 180.167 157.911 180.397 158.847 180.857C159.782 181.302 160.518 181.938 161.055 182.766C161.607 183.594 161.883 184.575 161.883 185.71C161.883 186.829 161.607 187.803 161.055 188.631C160.518 189.459 159.782 190.103 158.847 190.563C157.911 191.008 156.846 191.23 155.65 191.23C154.469 191.23 153.403 191.008 152.453 190.563C151.517 190.103 150.781 189.459 150.245 188.631C149.708 187.803 149.44 186.829 149.44 185.71ZM153.534 185.71C153.534 186.201 153.626 186.622 153.81 186.975C154.009 187.312 154.27 187.573 154.592 187.757C154.914 187.926 155.266 188.01 155.65 188.01C156.033 188.01 156.386 187.926 156.708 187.757C157.03 187.573 157.29 187.312 157.49 186.975C157.689 186.622 157.789 186.201 157.789 185.71C157.789 185.219 157.689 184.805 157.49 184.468C157.29 184.115 157.03 183.847 156.708 183.663C156.386 183.479 156.033 183.387 155.65 183.387C155.266 183.387 154.914 183.479 154.592 183.663C154.27 183.847 154.009 184.115 153.81 184.468C153.626 184.805 153.534 185.219 153.534 185.71ZM168.013 186.86C168.013 187.412 168.105 187.841 168.289 188.148C168.473 188.439 168.818 188.585 169.324 188.585C169.661 188.585 169.945 188.524 170.175 188.401C170.405 188.278 170.581 188.087 170.704 187.826C170.842 187.565 170.911 187.243 170.911 186.86V180.42H174.89V191H170.911V189.436C170.604 189.988 170.183 190.433 169.646 190.77C169.125 191.092 168.465 191.253 167.668 191.253C166.288 191.253 165.307 190.908 164.724 190.218C164.141 189.513 163.85 188.531 163.85 187.274V180.42H168.013V186.86ZM181.303 180.42V191H177.416V180.42H181.303ZM184.316 184.491C184.148 184.307 183.956 184.161 183.741 184.054C183.542 183.931 183.289 183.87 182.982 183.87C182.676 183.87 182.392 183.954 182.131 184.123C181.871 184.292 181.664 184.545 181.51 184.882C181.372 185.219 181.303 185.641 181.303 186.147L180.475 184.56C180.475 183.717 180.644 182.965 180.981 182.306C181.319 181.647 181.763 181.125 182.315 180.742C182.883 180.343 183.473 180.144 184.086 180.144C184.47 180.144 184.838 180.236 185.19 180.42C185.543 180.589 185.804 180.803 185.972 181.064L184.316 184.491ZM202.267 173.06H206.246V191H202.267V173.06ZM193.688 185.71C193.688 184.499 193.925 183.487 194.401 182.674C194.891 181.861 195.512 181.248 196.264 180.834C197.03 180.405 197.828 180.19 198.656 180.19C199.545 180.19 200.335 180.412 201.025 180.857C201.715 181.302 202.259 181.938 202.658 182.766C203.072 183.579 203.279 184.56 203.279 185.71C203.279 186.845 203.072 187.826 202.658 188.654C202.259 189.482 201.715 190.118 201.025 190.563C200.335 191.008 199.545 191.23 198.656 191.23C197.828 191.23 197.03 191.023 196.264 190.609C195.512 190.18 194.891 189.559 194.401 188.746C193.925 187.918 193.688 186.906 193.688 185.71ZM197.874 185.71C197.874 186.17 197.973 186.584 198.173 186.952C198.372 187.32 198.64 187.604 198.978 187.803C199.315 188.002 199.683 188.102 200.082 188.102C200.434 188.102 200.779 188.01 201.117 187.826C201.454 187.627 201.73 187.351 201.945 186.998C202.159 186.645 202.267 186.216 202.267 185.71C202.267 185.204 202.159 184.775 201.945 184.422C201.73 184.069 201.454 183.801 201.117 183.617C200.779 183.418 200.434 183.318 200.082 183.318C199.683 183.318 199.315 183.418 198.978 183.617C198.64 183.816 198.372 184.1 198.173 184.468C197.973 184.821 197.874 185.235 197.874 185.71ZM211.992 187.688C211.992 187.918 212.046 188.117 212.153 188.286C212.276 188.439 212.437 188.562 212.636 188.654C212.836 188.731 213.05 188.769 213.28 188.769C213.618 188.769 213.94 188.7 214.246 188.562C214.553 188.409 214.798 188.179 214.982 187.872C215.182 187.55 215.281 187.151 215.281 186.676L215.649 188.056C215.649 188.731 215.473 189.306 215.12 189.781C214.783 190.256 214.315 190.617 213.717 190.862C213.135 191.107 212.491 191.23 211.785 191.23C211.111 191.23 210.482 191.107 209.899 190.862C209.332 190.601 208.872 190.226 208.519 189.735C208.167 189.229 207.99 188.616 207.99 187.895C207.99 186.883 208.343 186.086 209.048 185.503C209.769 184.92 210.804 184.629 212.153 184.629C212.736 184.629 213.28 184.683 213.786 184.79C214.308 184.897 214.76 185.043 215.143 185.227C215.542 185.396 215.841 185.587 216.04 185.802V187.481C215.734 187.22 215.35 187.021 214.89 186.883C214.43 186.745 213.947 186.676 213.441 186.676C213.089 186.676 212.805 186.714 212.59 186.791C212.376 186.868 212.222 186.983 212.13 187.136C212.038 187.274 211.992 187.458 211.992 187.688ZM210.06 183.893L208.795 181.294C209.47 181.003 210.244 180.734 211.118 180.489C212.008 180.228 212.951 180.098 213.947 180.098C214.913 180.098 215.78 180.236 216.546 180.512C217.328 180.773 217.942 181.164 218.386 181.685C218.846 182.206 219.076 182.843 219.076 183.594V191H215.281V184.537C215.281 184.307 215.243 184.1 215.166 183.916C215.105 183.732 214.998 183.579 214.844 183.456C214.691 183.318 214.492 183.218 214.246 183.157C214.001 183.08 213.717 183.042 213.395 183.042C212.951 183.042 212.491 183.096 212.015 183.203C211.555 183.31 211.149 183.433 210.796 183.571C210.444 183.709 210.198 183.816 210.06 183.893ZM220.38 180.42H227.993V183.64H220.38V180.42ZM222.289 176.74H226.084V191H222.289V176.74ZM232.612 187.688C232.612 187.918 232.665 188.117 232.773 188.286C232.895 188.439 233.056 188.562 233.256 188.654C233.455 188.731 233.67 188.769 233.9 188.769C234.237 188.769 234.559 188.7 234.866 188.562C235.172 188.409 235.418 188.179 235.602 187.872C235.801 187.55 235.901 187.151 235.901 186.676L236.269 188.056C236.269 188.731 236.092 189.306 235.74 189.781C235.402 190.256 234.935 190.617 234.337 190.862C233.754 191.107 233.11 191.23 232.405 191.23C231.73 191.23 231.101 191.107 230.519 190.862C229.951 190.601 229.491 190.226 229.139 189.735C228.786 189.229 228.61 188.616 228.61 187.895C228.61 186.883 228.962 186.086 229.668 185.503C230.388 184.92 231.423 184.629 232.773 184.629C233.355 184.629 233.9 184.683 234.406 184.79C234.927 184.897 235.379 185.043 235.763 185.227C236.161 185.396 236.46 185.587 236.66 185.802V187.481C236.353 187.22 235.97 187.021 235.51 186.883C235.05 186.745 234.567 186.676 234.061 186.676C233.708 186.676 233.424 186.714 233.21 186.791C232.995 186.868 232.842 186.983 232.75 187.136C232.658 187.274 232.612 187.458 232.612 187.688ZM230.68 183.893L229.415 181.294C230.089 181.003 230.864 180.734 231.738 180.489C232.627 180.228 233.57 180.098 234.567 180.098C235.533 180.098 236.399 180.236 237.166 180.512C237.948 180.773 238.561 181.164 239.006 181.685C239.466 182.206 239.696 182.843 239.696 183.594V191H235.901V184.537C235.901 184.307 235.862 184.1 235.786 183.916C235.724 183.732 235.617 183.579 235.464 183.456C235.31 183.318 235.111 183.218 234.866 183.157C234.62 183.08 234.337 183.042 234.015 183.042C233.57 183.042 233.11 183.096 232.635 183.203C232.175 183.31 231.768 183.433 231.416 183.571C231.063 183.709 230.818 183.816 230.68 183.893ZM242.241 189.252C242.241 188.593 242.463 188.033 242.908 187.573C243.368 187.098 243.958 186.86 244.679 186.86C245.399 186.86 245.982 187.098 246.427 187.573C246.871 188.033 247.094 188.593 247.094 189.252C247.094 189.896 246.871 190.456 246.427 190.931C245.982 191.391 245.399 191.621 244.679 191.621C243.958 191.621 243.368 191.391 242.908 190.931C242.463 190.456 242.241 189.896 242.241 189.252Z" fill="#8CAECB"/>
<path d="M257.005 174.9H261.467V187.205H267.976V191H257.005V174.9ZM275.032 191.23C273.728 191.23 272.601 191.008 271.651 190.563C270.715 190.103 269.995 189.467 269.489 188.654C268.983 187.826 268.73 186.845 268.73 185.71C268.73 184.56 268.975 183.579 269.466 182.766C269.956 181.938 270.662 181.302 271.582 180.857C272.502 180.412 273.606 180.19 274.894 180.19C276.182 180.19 277.263 180.397 278.137 180.811C279.011 181.225 279.678 181.831 280.138 182.628C280.598 183.41 280.828 184.376 280.828 185.526C280.828 185.71 280.82 185.894 280.805 186.078C280.805 186.247 280.797 186.4 280.782 186.538H270.915V184.491H277.148L276.297 185.549C276.373 185.426 276.442 185.288 276.504 185.135C276.565 184.982 276.596 184.851 276.596 184.744C276.596 184.315 276.519 183.954 276.366 183.663C276.228 183.356 276.021 183.126 275.745 182.973C275.484 182.804 275.17 182.72 274.802 182.72C274.342 182.72 273.958 182.827 273.652 183.042C273.345 183.257 273.115 183.586 272.962 184.031C272.808 184.46 272.732 185.012 272.732 185.687C272.716 186.285 272.793 186.791 272.962 187.205C273.13 187.619 273.376 187.941 273.698 188.171C274.02 188.386 274.418 188.493 274.894 188.493C275.476 188.493 275.967 188.393 276.366 188.194C276.78 187.979 277.102 187.673 277.332 187.274L280.92 187.987C280.352 189.076 279.578 189.888 278.597 190.425C277.631 190.962 276.442 191.23 275.032 191.23ZM283.468 186.975C284.112 187.466 284.672 187.834 285.147 188.079C285.623 188.324 286.029 188.485 286.366 188.562C286.704 188.639 286.964 188.677 287.148 188.677C287.44 188.677 287.654 188.616 287.792 188.493C287.93 188.37 287.999 188.202 287.999 187.987C287.999 187.803 287.938 187.65 287.815 187.527C287.708 187.389 287.493 187.251 287.171 187.113C286.865 186.975 286.405 186.806 285.791 186.607C285.285 186.438 284.802 186.231 284.342 185.986C283.882 185.725 283.507 185.38 283.215 184.951C282.939 184.506 282.801 183.939 282.801 183.249C282.801 182.59 282.978 182.038 283.33 181.593C283.683 181.133 284.166 180.788 284.779 180.558C285.393 180.313 286.106 180.19 286.918 180.19C287.547 180.19 288.13 180.259 288.666 180.397C289.218 180.52 289.74 180.688 290.23 180.903C290.721 181.102 291.204 181.34 291.679 181.616L290.506 184.261C290.016 183.832 289.464 183.487 288.85 183.226C288.252 182.95 287.723 182.812 287.263 182.812C286.972 182.812 286.757 182.866 286.619 182.973C286.497 183.08 286.435 183.211 286.435 183.364C286.435 183.579 286.527 183.755 286.711 183.893C286.895 184.016 287.171 184.138 287.539 184.261C287.907 184.384 288.375 184.552 288.942 184.767C289.479 184.966 289.97 185.196 290.414 185.457C290.874 185.702 291.242 186.024 291.518 186.423C291.81 186.822 291.955 187.351 291.955 188.01C291.955 189.206 291.595 190.088 290.874 190.655C290.169 191.222 289.165 191.506 287.861 191.506C287.079 191.506 286.343 191.429 285.653 191.276C284.979 191.123 284.342 190.908 283.744 190.632C283.146 190.356 282.571 190.042 282.019 189.689L283.468 186.975ZM294.317 186.975C294.961 187.466 295.521 187.834 295.996 188.079C296.471 188.324 296.878 188.485 297.215 188.562C297.552 188.639 297.813 188.677 297.997 188.677C298.288 188.677 298.503 188.616 298.641 188.493C298.779 188.37 298.848 188.202 298.848 187.987C298.848 187.803 298.787 187.65 298.664 187.527C298.557 187.389 298.342 187.251 298.02 187.113C297.713 186.975 297.253 186.806 296.64 186.607C296.134 186.438 295.651 186.231 295.191 185.986C294.731 185.725 294.355 185.38 294.064 184.951C293.788 184.506 293.65 183.939 293.65 183.249C293.65 182.59 293.826 182.038 294.179 181.593C294.532 181.133 295.015 180.788 295.628 180.558C296.241 180.313 296.954 180.19 297.767 180.19C298.396 180.19 298.978 180.259 299.515 180.397C300.067 180.52 300.588 180.688 301.079 180.903C301.57 181.102 302.053 181.34 302.528 181.616L301.355 184.261C300.864 183.832 300.312 183.487 299.699 183.226C299.101 182.95 298.572 182.812 298.112 182.812C297.821 182.812 297.606 182.866 297.468 182.973C297.345 183.08 297.284 183.211 297.284 183.364C297.284 183.579 297.376 183.755 297.56 183.893C297.744 184.016 298.02 184.138 298.388 184.261C298.756 184.384 299.224 184.552 299.791 184.767C300.328 184.966 300.818 185.196 301.263 185.457C301.723 185.702 302.091 186.024 302.367 186.423C302.658 186.822 302.804 187.351 302.804 188.01C302.804 189.206 302.444 190.088 301.723 190.655C301.018 191.222 300.013 191.506 298.71 191.506C297.928 191.506 297.192 191.429 296.502 191.276C295.827 191.123 295.191 190.908 294.593 190.632C293.995 190.356 293.42 190.042 292.868 189.689L294.317 186.975ZM309.945 180.42H314.062L316.132 185.411L319.214 179.615L322.319 185.411L324.389 180.42H328.506L322.802 191.621L319.214 185.756L315.649 191.621L309.945 180.42ZM332.765 187.688C332.765 187.918 332.819 188.117 332.926 188.286C333.049 188.439 333.21 188.562 333.409 188.654C333.608 188.731 333.823 188.769 334.053 188.769C334.39 188.769 334.712 188.7 335.019 188.562C335.326 188.409 335.571 188.179 335.755 187.872C335.954 187.55 336.054 187.151 336.054 186.676L336.422 188.056C336.422 188.731 336.246 189.306 335.893 189.781C335.556 190.256 335.088 190.617 334.49 190.862C333.907 191.107 333.263 191.23 332.558 191.23C331.883 191.23 331.255 191.107 330.672 190.862C330.105 190.601 329.645 190.226 329.292 189.735C328.939 189.229 328.763 188.616 328.763 187.895C328.763 186.883 329.116 186.086 329.821 185.503C330.542 184.92 331.577 184.629 332.926 184.629C333.509 184.629 334.053 184.683 334.559 184.79C335.08 184.897 335.533 185.043 335.916 185.227C336.315 185.396 336.614 185.587 336.813 185.802V187.481C336.506 187.22 336.123 187.021 335.663 186.883C335.203 186.745 334.72 186.676 334.214 186.676C333.861 186.676 333.578 186.714 333.363 186.791C333.148 186.868 332.995 186.983 332.903 187.136C332.811 187.274 332.765 187.458 332.765 187.688ZM330.833 183.893L329.568 181.294C330.243 181.003 331.017 180.734 331.891 180.489C332.78 180.228 333.723 180.098 334.72 180.098C335.686 180.098 336.552 180.236 337.319 180.512C338.101 180.773 338.714 181.164 339.159 181.685C339.619 182.206 339.849 182.843 339.849 183.594V191H336.054V184.537C336.054 184.307 336.016 184.1 335.939 183.916C335.878 183.732 335.77 183.579 335.617 183.456C335.464 183.318 335.264 183.218 335.019 183.157C334.774 183.08 334.49 183.042 334.168 183.042C333.723 183.042 333.263 183.096 332.788 183.203C332.328 183.31 331.922 183.433 331.569 183.571C331.216 183.709 330.971 183.816 330.833 183.893ZM342.9 186.975C343.544 187.466 344.104 187.834 344.579 188.079C345.054 188.324 345.461 188.485 345.798 188.562C346.135 188.639 346.396 188.677 346.58 188.677C346.871 188.677 347.086 188.616 347.224 188.493C347.362 188.37 347.431 188.202 347.431 187.987C347.431 187.803 347.37 187.65 347.247 187.527C347.14 187.389 346.925 187.251 346.603 187.113C346.296 186.975 345.836 186.806 345.223 186.607C344.717 186.438 344.234 186.231 343.774 185.986C343.314 185.725 342.938 185.38 342.647 184.951C342.371 184.506 342.233 183.939 342.233 183.249C342.233 182.59 342.409 182.038 342.762 181.593C343.115 181.133 343.598 180.788 344.211 180.558C344.824 180.313 345.537 180.19 346.35 180.19C346.979 180.19 347.561 180.259 348.098 180.397C348.65 180.52 349.171 180.688 349.662 180.903C350.153 181.102 350.636 181.34 351.111 181.616L349.938 184.261C349.447 183.832 348.895 183.487 348.282 183.226C347.684 182.95 347.155 182.812 346.695 182.812C346.404 182.812 346.189 182.866 346.051 182.973C345.928 183.08 345.867 183.211 345.867 183.364C345.867 183.579 345.959 183.755 346.143 183.893C346.327 184.016 346.603 184.138 346.971 184.261C347.339 184.384 347.807 184.552 348.374 184.767C348.911 184.966 349.401 185.196 349.846 185.457C350.306 185.702 350.674 186.024 350.95 186.423C351.241 186.822 351.387 187.351 351.387 188.01C351.387 189.206 351.027 190.088 350.306 190.655C349.601 191.222 348.596 191.506 347.293 191.506C346.511 191.506 345.775 191.429 345.085 191.276C344.41 191.123 343.774 190.908 343.176 190.632C342.578 190.356 342.003 190.042 341.451 189.689L342.9 186.975ZM352.001 180.42H359.614V183.64H352.001V180.42ZM353.91 176.74H357.705V191H353.91V176.74ZM366.74 191.23C365.436 191.23 364.309 191.008 363.359 190.563C362.423 190.103 361.703 189.467 361.197 188.654C360.691 187.826 360.438 186.845 360.438 185.71C360.438 184.56 360.683 183.579 361.174 182.766C361.664 181.938 362.37 181.302 363.29 180.857C364.21 180.412 365.314 180.19 366.602 180.19C367.89 180.19 368.971 180.397 369.845 180.811C370.719 181.225 371.386 181.831 371.846 182.628C372.306 183.41 372.536 184.376 372.536 185.526C372.536 185.71 372.528 185.894 372.513 186.078C372.513 186.247 372.505 186.4 372.49 186.538H362.623V184.491H368.856L368.005 185.549C368.081 185.426 368.15 185.288 368.212 185.135C368.273 184.982 368.304 184.851 368.304 184.744C368.304 184.315 368.227 183.954 368.074 183.663C367.936 183.356 367.729 183.126 367.453 182.973C367.192 182.804 366.878 182.72 366.51 182.72C366.05 182.72 365.666 182.827 365.36 183.042C365.053 183.257 364.823 183.586 364.67 184.031C364.516 184.46 364.44 185.012 364.44 185.687C364.424 186.285 364.501 186.791 364.67 187.205C364.838 187.619 365.084 187.941 365.406 188.171C365.728 188.386 366.126 188.493 366.602 188.493C367.184 188.493 367.675 188.393 368.074 188.194C368.488 187.979 368.81 187.673 369.04 187.274L372.628 187.987C372.06 189.076 371.286 189.888 370.305 190.425C369.339 190.962 368.15 191.23 366.74 191.23ZM374.744 188.47L378.723 189.229L375.71 194.979L372.72 194.427L374.744 188.47ZM391.831 173.06V191H387.852V173.06H391.831ZM400.41 185.71C400.41 186.906 400.165 187.918 399.674 188.746C399.199 189.559 398.586 190.18 397.834 190.609C397.083 191.023 396.286 191.23 395.442 191.23C394.568 191.23 393.779 191.008 393.073 190.563C392.383 190.118 391.831 189.482 391.417 188.654C391.019 187.826 390.819 186.845 390.819 185.71C390.819 184.56 391.019 183.579 391.417 182.766C391.831 181.938 392.383 181.302 393.073 180.857C393.779 180.412 394.568 180.19 395.442 180.19C396.286 180.19 397.083 180.405 397.834 180.834C398.586 181.248 399.199 181.861 399.674 182.674C400.165 183.487 400.41 184.499 400.41 185.71ZM396.224 185.71C396.224 185.235 396.125 184.821 395.925 184.468C395.726 184.1 395.458 183.816 395.12 183.617C394.783 183.418 394.407 183.318 393.993 183.318C393.641 183.318 393.296 183.418 392.958 183.617C392.636 183.801 392.368 184.069 392.153 184.422C391.939 184.775 391.831 185.204 391.831 185.71C391.831 186.216 391.939 186.645 392.153 186.998C392.368 187.351 392.636 187.627 392.958 187.826C393.296 188.01 393.641 188.102 393.993 188.102C394.407 188.102 394.783 188.002 395.12 187.803C395.458 187.604 395.726 187.32 395.925 186.952C396.125 186.584 396.224 186.17 396.224 185.71ZM408.135 191.23C406.832 191.23 405.705 191.008 404.754 190.563C403.819 190.103 403.098 189.467 402.592 188.654C402.086 187.826 401.833 186.845 401.833 185.71C401.833 184.56 402.078 183.579 402.569 182.766C403.06 181.938 403.765 181.302 404.685 180.857C405.605 180.412 406.709 180.19 407.997 180.19C409.285 180.19 410.366 180.397 411.24 180.811C412.114 181.225 412.781 181.831 413.241 182.628C413.701 183.41 413.931 184.376 413.931 185.526C413.931 185.71 413.923 185.894 413.908 186.078C413.908 186.247 413.9 186.4 413.885 186.538H404.018V184.491H410.251L409.4 185.549C409.477 185.426 409.546 185.288 409.607 185.135C409.668 184.982 409.699 184.851 409.699 184.744C409.699 184.315 409.622 183.954 409.469 183.663C409.331 183.356 409.124 183.126 408.848 182.973C408.587 182.804 408.273 182.72 407.905 182.72C407.445 182.72 407.062 182.827 406.755 183.042C406.448 183.257 406.218 183.586 406.065 184.031C405.912 184.46 405.835 185.012 405.835 185.687C405.82 186.285 405.896 186.791 406.065 187.205C406.234 187.619 406.479 187.941 406.801 188.171C407.123 188.386 407.522 188.493 407.997 188.493C408.58 188.493 409.07 188.393 409.469 188.194C409.883 187.979 410.205 187.673 410.435 187.274L414.023 187.987C413.456 189.076 412.681 189.888 411.7 190.425C410.734 190.962 409.546 191.23 408.135 191.23ZM414.824 180.42H422.437V183.64H414.824V180.42ZM416.733 176.74H420.528V191H416.733V176.74ZM422.663 180.42H430.276V183.64H422.663V180.42ZM424.572 176.74H428.367V191H424.572V176.74ZM437.402 191.23C436.098 191.23 434.971 191.008 434.021 190.563C433.085 190.103 432.365 189.467 431.859 188.654C431.353 187.826 431.1 186.845 431.1 185.71C431.1 184.56 431.345 183.579 431.836 182.766C432.326 181.938 433.032 181.302 433.952 180.857C434.872 180.412 435.976 180.19 437.264 180.19C438.552 180.19 439.633 180.397 440.507 180.811C441.381 181.225 442.048 181.831 442.508 182.628C442.968 183.41 443.198 184.376 443.198 185.526C443.198 185.71 443.19 185.894 443.175 186.078C443.175 186.247 443.167 186.4 443.152 186.538H433.285V184.491H439.518L438.667 185.549C438.743 185.426 438.812 185.288 438.874 185.135C438.935 184.982 438.966 184.851 438.966 184.744C438.966 184.315 438.889 183.954 438.736 183.663C438.598 183.356 438.391 183.126 438.115 182.973C437.854 182.804 437.54 182.72 437.172 182.72C436.712 182.72 436.328 182.827 436.022 183.042C435.715 183.257 435.485 183.586 435.332 184.031C435.178 184.46 435.102 185.012 435.102 185.687C435.086 186.285 435.163 186.791 435.332 187.205C435.5 187.619 435.746 187.941 436.068 188.171C436.39 188.386 436.788 188.493 437.264 188.493C437.846 188.493 438.337 188.393 438.736 188.194C439.15 187.979 439.472 187.673 439.702 187.274L443.29 187.987C442.722 189.076 441.948 189.888 440.967 190.425C440.001 190.962 438.812 191.23 437.402 191.23ZM449.128 180.42V191H445.241V180.42H449.128ZM452.141 184.491C451.972 184.307 451.78 184.161 451.566 184.054C451.366 183.931 451.113 183.87 450.807 183.87C450.5 183.87 450.216 183.954 449.956 184.123C449.695 184.292 449.488 184.545 449.335 184.882C449.197 185.219 449.128 185.641 449.128 186.147L448.3 184.56C448.3 183.717 448.468 182.965 448.806 182.306C449.143 181.647 449.588 181.125 450.14 180.742C450.707 180.343 451.297 180.144 451.911 180.144C452.294 180.144 452.662 180.236 453.015 180.42C453.367 180.589 453.628 180.803 453.797 181.064L452.141 184.491ZM461.075 180.42H468.872V183.64H461.075V180.42ZM468.412 176.74C468.258 176.556 468.097 176.418 467.929 176.326C467.76 176.219 467.576 176.165 467.377 176.165C467.147 176.165 466.947 176.219 466.779 176.326C466.625 176.418 466.503 176.571 466.411 176.786C466.319 176.985 466.273 177.246 466.273 177.568V191H462.478V176.51C462.478 175.728 462.631 175.053 462.938 174.486C463.26 173.903 463.735 173.451 464.364 173.129C464.992 172.807 465.782 172.646 466.733 172.646C467.331 172.646 467.829 172.715 468.228 172.853C468.642 172.991 468.987 173.16 469.263 173.359C469.539 173.558 469.761 173.735 469.93 173.888L468.412 176.74ZM470.098 176.579C470.098 175.966 470.313 175.467 470.742 175.084C471.187 174.701 471.716 174.509 472.329 174.509C472.958 174.509 473.487 174.701 473.916 175.084C474.361 175.467 474.583 175.966 474.583 176.579C474.583 177.177 474.361 177.668 473.916 178.051C473.487 178.434 472.958 178.626 472.329 178.626C471.716 178.626 471.187 178.434 470.742 178.051C470.313 177.668 470.098 177.177 470.098 176.579ZM470.42 180.42H474.238V191H470.42V180.42ZM475.693 180.42H483.306V183.64H475.693V180.42ZM477.602 176.74H481.397V191H477.602V176.74ZM484.774 189.252C484.774 188.593 484.996 188.033 485.441 187.573C485.901 187.098 486.491 186.86 487.212 186.86C487.933 186.86 488.515 187.098 488.96 187.573C489.405 188.033 489.627 188.593 489.627 189.252C489.627 189.896 489.405 190.456 488.96 190.931C488.515 191.391 487.933 191.621 487.212 191.621C486.491 191.621 485.901 191.391 485.441 190.931C484.996 190.456 484.774 189.896 484.774 189.252Z" fill="#D94343"/>
</svg>
