<svg width="438" height="719" viewBox="0 0 438 719" fill="none" xmlns="http://www.w3.org/2000/svg">
<path d="M154.57 466C154.57 473.18 146.735 479 137.07 479C127.405 479 119.57 473.18 119.57 466C119.57 458.82 127.405 453 137.07 453C146.735 453 154.57 458.82 154.57 466Z" fill="#D49769"/>
<path d="M220.834 703.14C215.71 708.099 201.139 708.268 188.422 701.349C175.704 694.431 175.765 684.513 175.062 679.411C177.875 670.227 192.641 677.88 206.001 683.493C222.877 688.084 225.958 698.182 220.834 703.14Z" fill="#C29477"/>
<path d="M149.7 718.921C141.77 719.415 130.282 711.13 125.868 698.983C121.453 686.836 129.376 679.972 132.879 676.017C142.363 671.25 147.792 685.09 153.745 696.698C163.248 709.625 157.63 718.426 149.7 718.921Z" fill="#C29477"/>
<path d="M153.57 569C153.57 573.971 146.631 578 138.07 578C129.51 578 122.57 573.971 122.57 569C122.57 564.029 129.51 560 138.07 560C146.631 560 153.57 564.029 153.57 569Z" fill="#D49769"/>
<path d="M203.57 569C203.57 573.971 197.079 578 189.07 578C181.062 578 174.57 573.971 174.57 569C174.57 564.029 181.062 560 189.07 560C197.079 560 203.57 564.029 203.57 569Z" fill="#D49769"/>
<path d="M204.57 466C204.57 473.18 196.735 479 187.07 479C177.405 479 169.57 473.18 169.57 466C169.57 458.82 177.405 453 187.07 453C196.735 453 204.57 458.82 204.57 466Z" fill="#D49769"/>
<path d="M198.57 394.5C198.57 405.27 183.124 414 164.07 414C145.017 414 129.57 405.27 129.57 394.5C129.57 383.73 145.017 375 164.07 375C183.124 375 198.57 383.73 198.57 394.5Z" fill="#D49769"/>
<path d="M198.126 257.276C190.793 279.258 181.029 295.111 161.909 289.143C143.277 289.462 137.481 272.269 138.482 248.352C139.267 229.588 146.446 215.399 167.974 217.762C193.966 220.616 205.459 235.294 198.126 257.276Z" fill="#C29477"/>
<path d="M117.479 338.178C110.614 338.898 104.207 331.468 103.169 321.581C102.132 311.694 106.856 303.095 113.722 302.374C120.588 301.654 126.995 309.085 128.033 318.972C129.07 328.858 124.345 337.457 117.479 338.178Z" fill="#D49769"/>
<path d="M233.57 318.5C233.57 325.404 225.512 331 215.57 331C205.629 331 197.57 325.404 197.57 318.5C197.57 311.596 205.629 306 215.57 306C225.512 306 233.57 311.596 233.57 318.5Z" fill="#D49769"/>
<path d="M141.57 292C141.57 289.239 143.809 287 146.57 287H177.57C180.332 287 182.57 289.239 182.57 292V296C182.57 298.761 180.332 301 177.57 301H146.57C143.809 301 141.57 298.761 141.57 296V292Z" fill="#D49769"/>
<path d="M119.511 319.564C117.482 310.003 124.774 301 134.548 301H188.083C198.736 301 206.774 310.669 204.829 321.143L203.333 355.6C203.262 357.238 203.387 358.878 203.706 360.485C206.224 373.175 196.514 385 183.577 385H141.122C127.709 385 117.474 373.011 119.576 359.765C119.756 358.633 119.846 357.49 119.846 356.344V322.756C119.846 321.684 119.734 320.614 119.511 319.564Z" fill="#C29477"/>
<path d="M126.117 411.197C129.4 405.694 135.373 402.348 141.744 402.442L187.39 403.119C189.439 403.149 191.466 403.509 193.393 404.183C199.755 406.41 204.422 411.845 205.669 418.478L205.767 419.001L207.173 440.429C208.992 450.15 201.433 459.222 191.514 459.222H135.13C126.773 459.222 120.459 451.81 121.776 443.544C121.89 442.829 121.947 442.107 121.947 441.385V432.266L123.735 418.103C124.043 415.667 124.854 413.315 126.117 411.197Z" fill="#C29477"/>
<path d="M43.7791 322.235C42.7397 317.941 37.1104 315.618 31.2058 317.048C25.3012 318.477 21.3571 323.117 22.3965 327.411C23.4359 331.705 29.0651 334.028 34.9698 332.599C40.8744 331.169 44.8185 326.53 43.7791 322.235Z" fill="#D49769"/>
<path d="M235.57 481C235.57 484.866 231.765 488 227.07 488C222.376 488 218.57 484.866 218.57 481C218.57 477.134 222.376 474 227.07 474C231.765 474 235.57 477.134 235.57 481Z" fill="#D49769"/>
<path d="M22.9534 253.197C22.0439 249.439 18.043 247.183 14.0171 248.158C9.99125 249.132 7.46489 252.968 8.37436 256.726C9.28384 260.483 13.2847 262.739 17.3106 261.765C21.3365 260.79 23.8629 256.954 22.9534 253.197Z" fill="#D49769"/>
<path d="M236.785 404.773C237.349 409.263 233.38 413.196 227.919 413.557C222.458 413.919 217.573 410.572 217.009 406.083C216.444 401.593 220.413 397.66 225.874 397.298C231.335 396.937 236.22 400.284 236.785 404.773Z" fill="#D49769"/>
<path d="M149.57 677.5C149.57 681.642 144.646 685 138.57 685C132.495 685 127.57 681.642 127.57 677.5C127.57 673.358 132.495 670 138.57 670C144.646 670 149.57 673.358 149.57 677.5Z" fill="#D49769"/>
<path d="M202.57 677.5C202.57 681.642 197.422 685 191.07 685C184.719 685 179.57 681.642 179.57 677.5C179.57 673.358 184.719 670 191.07 670C197.422 670 202.57 673.358 202.57 677.5Z" fill="#D49769"/>
<path d="M101.233 304.179C104.163 303.725 106.912 305.917 107.131 308.884L108.734 330.657C108.952 333.624 106.544 336.052 103.566 335.867L98.204 335.535L73.484 336.663L58.3244 336.176L37.6943 336.161C35.0197 336.159 32.7607 334.062 32.5646 331.398L31.4495 316.254C31.2534 313.59 33.1893 311.3 35.8458 311.055L56.3354 309.163L71.3221 307.301L95.9556 304.998L101.233 304.179Z" fill="#C29477"/>
<path d="M2.64922 227.466L19.1079 224.605L17.2564 211.247L0.797735 214.109L2.64922 227.466Z" fill="#D49769"/>
<path d="M221.225 511.867L239.802 510.776L241.299 524.194L222.721 525.285L221.225 511.867Z" fill="#D49769"/>
<path d="M204.32 331.007C203.96 328.147 206.082 325.651 208.957 325.55L231.04 324.777C234.013 324.673 236.5 327.168 236.376 330.13L236.152 335.466L236.771 360.943L237.618 375.263L238.028 395.838C238.081 398.504 236.022 400.676 233.352 400.77L218.18 401.301C215.51 401.394 213.173 399.376 212.872 396.718L210.551 376.21L208.373 361.192L205.063 336.913L204.32 331.007Z" fill="#C29477"/>
<path d="M154.7 578.094C154.239 575.657 152.072 573.857 149.598 573.857H126.315C123.726 573.857 121.635 575.824 121.491 578.393L120.89 589.163L120.187 604.469L121.744 620.796L123.582 642L125.812 658.5V668.179C125.812 671.003 128.166 673.346 131.001 673.346L147.932 673.346C150.533 673.346 152.63 671.361 152.758 668.778L154.2 639.558L155.345 618.245L155.345 581.978C155.345 581.667 155.315 581.355 155.257 581.048L154.7 578.094Z" fill="#C29477"/>
<path d="M205.011 578.119C204.551 575.682 202.383 573.882 199.91 573.882H176.627C174.038 573.882 171.946 575.849 171.803 578.418L171.202 589.188V604.707L172.056 620.82L173.809 641.442L175.42 658.278L176.124 666.228L176.124 668.204C176.124 671.027 178.477 673.371 181.313 673.371H197.456C200.006 673.371 202.081 671.461 202.273 668.935L204.511 639.583L205.656 618.269L206.857 603.177V589.577C206.857 589.318 206.837 589.059 206.797 588.801L205.656 581.535L205.011 578.119Z" fill="#C29477"/>
<path d="M209.985 479.521C209.985 476.785 207.785 474.586 205.048 474.586H172.446C169.66 474.586 167.381 476.862 167.381 479.648V501.045L169.202 515.783L171.822 533.254L173.891 557.268C173.918 557.585 173.976 557.897 174.062 558.202L174.513 559.783C175.117 561.903 177.048 563.356 179.26 563.356H199.346C202.037 563.356 204.272 561.228 204.404 558.54L205.574 534.785L207.683 515.782L209.985 491.351L209.985 479.521Z" fill="#C29477"/>
<path d="M157.057 480.097C157.057 477.362 154.856 475.162 152.119 475.162H121.104C118.317 475.162 116.039 477.439 116.039 480.225V489.735L116.755 502.709L118.383 516.359L121.196 533.831L123.247 557.64C123.286 558.092 123.386 558.535 123.545 558.958L124.216 560.744C124.939 562.667 126.774 563.933 128.837 563.933H148.719C151.41 563.933 153.646 561.805 153.778 559.117L154.947 535.362L157.057 516.359L157.057 480.097Z" fill="#C29477"/>
<path d="M17.5722 318.477C18.0235 321.406 20.9158 323.317 23.7891 322.584L38.8733 318.736C41.7466 318.003 43.3383 314.949 42.2945 312.171L40.9962 308.717L35.6942 288.48L31.5388 276.376L26.6017 260.451C25.8094 257.895 23.1428 256.402 20.5506 257.063L10.4468 259.641C7.85464 260.302 6.25536 262.883 6.81764 265.497L10.3211 281.788L12.6315 294.363L17.0109 314.835L17.5722 318.477Z" fill="#C29477"/>
<path d="M213.353 414.661C213.359 411.887 215.623 409.626 218.397 409.623L237.827 409.599C240.36 409.596 242.476 411.487 242.754 414.002L243.478 420.571L243.436 441.084L242.174 454.862L238.614 473.354C238.153 475.749 236.035 477.481 233.599 477.455L221.502 477.321C218.778 477.291 216.6 475.086 216.606 472.362L216.619 465.901L215.279 454.894L213.35 441.478C213.316 441.24 213.299 440.999 213.299 440.758L213.353 414.661Z" fill="#C29477"/>
<path d="M3.24659 248.503C3.66474 251.232 6.20551 253.041 8.92157 252.543L20.4817 250.421C23.1978 249.922 25.0606 247.306 24.6425 244.576L22.153 228.325C21.7349 225.596 19.1941 223.787 16.478 224.285L4.91787 226.407C2.20181 226.906 0.338981 229.522 0.757126 232.252L3.24659 248.503Z" fill="#C29477"/>
<path d="M216.356 490.979C216.093 488.23 218.116 485.89 220.874 485.751L235.091 485.036C237.849 484.898 240.298 487.014 240.56 489.763L242.125 506.152C242.388 508.901 240.365 511.242 237.607 511.38L223.39 512.095C220.632 512.234 218.183 510.117 217.921 507.369L216.356 490.979Z" fill="#C29477"/>
<path d="M192.939 248.143C191.574 248.825 190.365 244.799 187.83 239.728C185.294 234.657 182.2 228.516 183.565 227.833C184.929 227.151 190.993 231.594 193.529 236.665C196.064 241.736 194.303 247.461 192.939 248.143Z" fill="white"/>
</svg>
