<svg width="501" height="183" viewBox="0 0 501 183" fill="none" xmlns="http://www.w3.org/2000/svg">
<path d="M133.221 148.6H136.261L128.805 161.336V171H126.085V161.368L118.629 148.6H121.669L127.429 158.968L133.221 148.6ZM134.339 163.64C134.339 162.147 134.669 160.824 135.331 159.672C136.013 158.52 136.931 157.613 138.083 156.952C139.235 156.291 140.525 155.96 141.955 155.96C143.405 155.96 144.696 156.291 145.827 156.952C146.979 157.613 147.885 158.52 148.547 159.672C149.229 160.824 149.571 162.147 149.571 163.64C149.571 165.112 149.229 166.435 148.547 167.608C147.885 168.76 146.979 169.667 145.827 170.328C144.696 170.989 143.405 171.32 141.955 171.32C140.525 171.32 139.235 170.989 138.083 170.328C136.931 169.667 136.013 168.76 135.331 167.608C134.669 166.435 134.339 165.112 134.339 163.64ZM136.931 163.64C136.931 164.664 137.144 165.571 137.571 166.36C138.019 167.149 138.616 167.779 139.363 168.248C140.131 168.696 140.995 168.92 141.955 168.92C142.915 168.92 143.768 168.696 144.515 168.248C145.283 167.779 145.88 167.149 146.307 166.36C146.755 165.571 146.979 164.664 146.979 163.64C146.979 162.616 146.755 161.709 146.307 160.92C145.88 160.109 145.283 159.48 144.515 159.032C143.768 158.584 142.915 158.36 141.955 158.36C140.995 158.36 140.131 158.584 139.363 159.032C138.616 159.48 138.019 160.109 137.571 160.92C137.144 161.709 136.931 162.616 136.931 163.64ZM155.648 165.24C155.648 166.413 155.914 167.32 156.448 167.96C156.981 168.6 157.76 168.92 158.784 168.92C159.53 168.92 160.181 168.771 160.736 168.472C161.312 168.152 161.749 167.715 162.048 167.16C162.368 166.605 162.528 165.965 162.528 165.24V156.28H165.088V171H162.528V168.696C162.037 169.571 161.429 170.232 160.704 170.68C159.978 171.107 159.125 171.32 158.144 171.32C156.608 171.32 155.381 170.797 154.464 169.752C153.546 168.707 153.088 167.309 153.088 165.56V156.28H155.648V165.24ZM172.46 156.28V171H169.9V156.28H172.46ZM176.908 159.096C176.567 158.84 176.257 158.659 175.98 158.552C175.703 158.424 175.351 158.36 174.924 158.36C174.284 158.36 173.783 158.52 173.42 158.84C173.057 159.16 172.801 159.597 172.652 160.152C172.524 160.707 172.46 161.336 172.46 162.04H171.308C171.308 160.867 171.511 159.832 171.916 158.936C172.343 158.019 172.887 157.293 173.548 156.76C174.209 156.227 174.881 155.96 175.564 155.96C176.097 155.96 176.588 156.035 177.036 156.184C177.505 156.312 177.932 156.579 178.316 156.984L176.908 159.096ZM191.071 166.488C191.369 166.936 191.711 167.352 192.095 167.736C192.479 168.12 192.916 168.429 193.407 168.664C193.919 168.877 194.473 168.984 195.071 168.984C195.796 168.984 196.361 168.824 196.767 168.504C197.193 168.163 197.407 167.704 197.407 167.128C197.407 166.616 197.236 166.189 196.895 165.848C196.575 165.485 196.159 165.187 195.647 164.952C195.135 164.696 194.591 164.461 194.015 164.248C193.375 163.992 192.724 163.693 192.062 163.352C191.423 162.989 190.879 162.531 190.431 161.976C190.004 161.4 189.791 160.685 189.791 159.832C189.791 158.957 190.015 158.232 190.463 157.656C190.932 157.08 191.529 156.653 192.255 156.376C193.001 156.099 193.769 155.96 194.559 155.96C195.348 155.96 196.084 156.088 196.767 156.344C197.471 156.6 198.089 156.941 198.623 157.368C199.156 157.795 199.572 158.285 199.871 158.84L197.823 160.152C197.417 159.597 196.905 159.139 196.286 158.776C195.689 158.413 195.007 158.232 194.239 158.232C193.705 158.232 193.247 158.349 192.863 158.584C192.479 158.819 192.286 159.181 192.286 159.672C192.286 160.056 192.436 160.397 192.735 160.696C193.033 160.995 193.417 161.261 193.887 161.496C194.356 161.731 194.847 161.955 195.359 162.168C196.212 162.509 196.991 162.883 197.695 163.288C198.399 163.672 198.953 164.141 199.359 164.696C199.785 165.251 199.999 165.965 199.999 166.84C199.999 168.12 199.529 169.187 198.591 170.04C197.673 170.893 196.457 171.32 194.943 171.32C193.961 171.32 193.076 171.149 192.286 170.808C191.497 170.445 190.825 169.987 190.271 169.432C189.737 168.877 189.332 168.312 189.055 167.736L191.071 166.488ZM203.369 150.2C203.369 149.709 203.539 149.293 203.881 148.952C204.243 148.611 204.659 148.44 205.129 148.44C205.619 148.44 206.035 148.611 206.377 148.952C206.718 149.293 206.889 149.709 206.889 150.2C206.889 150.669 206.718 151.085 206.377 151.448C206.035 151.789 205.619 151.96 205.129 151.96C204.659 151.96 204.243 151.789 203.881 151.448C203.539 151.085 203.369 150.669 203.369 150.2ZM203.849 156.28H206.409V171H203.849V156.28ZM218.881 158.68H210.721V156.28H223.521L214.401 168.6H222.881V171H209.761L218.881 158.68ZM231.627 171.32C230.262 171.32 229.046 171 227.979 170.36C226.934 169.699 226.113 168.792 225.515 167.64C224.939 166.488 224.651 165.155 224.651 163.64C224.651 162.104 224.95 160.76 225.547 159.608C226.166 158.456 227.019 157.56 228.107 156.92C229.217 156.28 230.497 155.96 231.947 155.96C233.398 155.96 234.635 156.269 235.659 156.888C236.705 157.485 237.505 158.349 238.059 159.48C238.614 160.611 238.891 161.955 238.891 163.512C238.891 163.661 238.881 163.821 238.859 163.992C238.859 164.141 238.859 164.237 238.859 164.28H226.283V162.104H236.843L235.819 163.576C235.883 163.469 235.947 163.309 236.011 163.096C236.075 162.861 236.107 162.669 236.107 162.52C236.107 161.645 235.926 160.888 235.563 160.248C235.222 159.608 234.742 159.107 234.123 158.744C233.505 158.381 232.779 158.2 231.947 158.2C230.966 158.2 230.123 158.413 229.419 158.84C228.737 159.245 228.203 159.843 227.819 160.632C227.457 161.4 227.265 162.349 227.243 163.48C227.243 164.632 227.425 165.613 227.787 166.424C228.15 167.235 228.683 167.853 229.387 168.28C230.091 168.707 230.945 168.92 231.947 168.92C232.95 168.92 233.835 168.707 234.603 168.28C235.371 167.832 236.022 167.16 236.555 166.264L238.635 167.576C237.867 168.813 236.897 169.752 235.723 170.392C234.571 171.011 233.206 171.32 231.627 171.32ZM241.446 169.72C241.446 169.229 241.617 168.813 241.958 168.472C242.321 168.131 242.737 167.96 243.206 167.96C243.697 167.96 244.113 168.131 244.454 168.472C244.796 168.813 244.966 169.229 244.966 169.72C244.966 170.189 244.796 170.605 244.454 170.968C244.113 171.309 243.697 171.48 243.206 171.48C242.737 171.48 242.321 171.309 241.958 170.968C241.617 170.605 241.446 170.189 241.446 169.72ZM272.346 148.6H275.386L267.93 161.336V171H265.21V161.368L257.754 148.6H260.794L266.554 158.968L272.346 148.6ZM273.464 163.64C273.464 162.147 273.794 160.824 274.456 159.672C275.138 158.52 276.056 157.613 277.208 156.952C278.36 156.291 279.65 155.96 281.08 155.96C282.53 155.96 283.821 156.291 284.952 156.952C286.104 157.613 287.01 158.52 287.672 159.672C288.354 160.824 288.696 162.147 288.696 163.64C288.696 165.112 288.354 166.435 287.672 167.608C287.01 168.76 286.104 169.667 284.952 170.328C283.821 170.989 282.53 171.32 281.08 171.32C279.65 171.32 278.36 170.989 277.208 170.328C276.056 169.667 275.138 168.76 274.456 167.608C273.794 166.435 273.464 165.112 273.464 163.64ZM276.056 163.64C276.056 164.664 276.269 165.571 276.696 166.36C277.144 167.149 277.741 167.779 278.488 168.248C279.256 168.696 280.12 168.92 281.08 168.92C282.04 168.92 282.893 168.696 283.64 168.248C284.408 167.779 285.005 167.149 285.432 166.36C285.88 165.571 286.104 164.664 286.104 163.64C286.104 162.616 285.88 161.709 285.432 160.92C285.005 160.109 284.408 159.48 283.64 159.032C282.893 158.584 282.04 158.36 281.08 158.36C280.12 158.36 279.256 158.584 278.488 159.032C277.741 159.48 277.144 160.109 276.696 160.92C276.269 161.709 276.056 162.616 276.056 163.64ZM294.773 165.24C294.773 166.413 295.039 167.32 295.573 167.96C296.106 168.6 296.885 168.92 297.909 168.92C298.655 168.92 299.306 168.771 299.861 168.472C300.437 168.152 300.874 167.715 301.173 167.16C301.493 166.605 301.653 165.965 301.653 165.24V156.28H304.213V171H301.653V168.696C301.162 169.571 300.554 170.232 299.829 170.68C299.103 171.107 298.25 171.32 297.269 171.32C295.733 171.32 294.506 170.797 293.589 169.752C292.671 168.707 292.213 167.309 292.213 165.56V156.28H294.773V165.24ZM311.585 156.28V171H309.025V156.28H311.585ZM316.033 159.096C315.692 158.84 315.382 158.659 315.105 158.552C314.828 158.424 314.476 158.36 314.049 158.36C313.409 158.36 312.908 158.52 312.545 158.84C312.182 159.16 311.926 159.597 311.777 160.152C311.649 160.707 311.585 161.336 311.585 162.04H310.433C310.433 160.867 310.636 159.832 311.041 158.936C311.468 158.019 312.012 157.293 312.673 156.76C313.334 156.227 314.006 155.96 314.689 155.96C315.222 155.96 315.713 156.035 316.161 156.184C316.63 156.312 317.057 156.579 317.441 156.984L316.033 159.096ZM340.628 146.04H343.188V171H340.628V146.04ZM328.308 163.64C328.308 162.04 328.638 160.675 329.299 159.544C329.961 158.392 330.846 157.507 331.956 156.888C333.065 156.269 334.281 155.96 335.604 155.96C336.841 155.96 337.918 156.269 338.836 156.888C339.753 157.507 340.468 158.392 340.98 159.544C341.513 160.675 341.78 162.04 341.78 163.64C341.78 165.219 341.513 166.584 340.98 167.736C340.468 168.888 339.753 169.773 338.836 170.392C337.918 171.011 336.841 171.32 335.604 171.32C334.281 171.32 333.065 171.011 331.956 170.392C330.846 169.773 329.961 168.888 329.299 167.736C328.638 166.584 328.308 165.219 328.308 163.64ZM330.9 163.64C330.9 164.771 331.124 165.731 331.572 166.52C332.041 167.309 332.66 167.907 333.428 168.312C334.196 168.717 335.028 168.92 335.924 168.92C336.67 168.92 337.406 168.717 338.132 168.312C338.857 167.907 339.454 167.309 339.924 166.52C340.393 165.731 340.628 164.771 340.628 163.64C340.628 162.509 340.393 161.549 339.924 160.76C339.454 159.971 338.857 159.373 338.132 158.968C337.406 158.563 336.67 158.36 335.924 158.36C335.028 158.36 334.196 158.563 333.428 158.968C332.66 159.373 332.041 159.971 331.572 160.76C331.124 161.549 330.9 162.509 330.9 163.64ZM348.99 166.456C348.99 167.011 349.118 167.491 349.374 167.896C349.651 168.301 350.024 168.611 350.494 168.824C350.984 169.016 351.539 169.112 352.158 169.112C352.947 169.112 353.651 168.952 354.27 168.632C354.91 168.312 355.411 167.864 355.774 167.288C356.158 166.691 356.35 166.008 356.35 165.24L356.862 167.16C356.862 168.099 356.574 168.877 355.998 169.496C355.443 170.115 354.75 170.573 353.918 170.872C353.107 171.171 352.296 171.32 351.486 171.32C350.59 171.32 349.747 171.139 348.958 170.776C348.19 170.392 347.571 169.848 347.102 169.144C346.632 168.44 346.398 167.587 346.398 166.584C346.398 165.155 346.899 164.013 347.902 163.16C348.926 162.285 350.344 161.848 352.158 161.848C353.224 161.848 354.11 161.976 354.814 162.232C355.539 162.467 356.115 162.744 356.542 163.064C356.968 163.363 357.256 163.608 357.406 163.8V165.304C356.659 164.792 355.891 164.429 355.102 164.216C354.312 163.981 353.47 163.864 352.574 163.864C351.742 163.864 351.059 163.971 350.526 164.184C350.014 164.397 349.63 164.696 349.374 165.08C349.118 165.464 348.99 165.923 348.99 166.456ZM348.606 159.672L347.358 157.784C347.912 157.379 348.67 156.973 349.63 156.568C350.611 156.163 351.784 155.96 353.15 155.96C354.302 155.96 355.304 156.141 356.158 156.504C357.032 156.845 357.704 157.347 358.174 158.008C358.664 158.669 358.91 159.48 358.91 160.44V171H356.35V160.792C356.35 160.28 356.264 159.864 356.094 159.544C355.923 159.203 355.678 158.936 355.358 158.744C355.059 158.552 354.707 158.413 354.302 158.328C353.896 158.243 353.47 158.2 353.022 158.2C352.296 158.2 351.635 158.285 351.038 158.456C350.462 158.627 349.971 158.829 349.566 159.064C349.16 159.299 348.84 159.501 348.606 159.672ZM361.004 156.28H368.364V158.68H361.004V156.28ZM363.404 151.16H365.964V171H363.404V151.16ZM372.083 166.456C372.083 167.011 372.211 167.491 372.467 167.896C372.745 168.301 373.118 168.611 373.587 168.824C374.078 169.016 374.633 169.112 375.251 169.112C376.041 169.112 376.745 168.952 377.363 168.632C378.003 168.312 378.505 167.864 378.867 167.288C379.251 166.691 379.443 166.008 379.443 165.24L379.955 167.16C379.955 168.099 379.667 168.877 379.091 169.496C378.537 170.115 377.843 170.573 377.011 170.872C376.201 171.171 375.39 171.32 374.579 171.32C373.683 171.32 372.841 171.139 372.051 170.776C371.283 170.392 370.665 169.848 370.195 169.144C369.726 168.44 369.491 167.587 369.491 166.584C369.491 165.155 369.993 164.013 370.995 163.16C372.019 162.285 373.438 161.848 375.251 161.848C376.318 161.848 377.203 161.976 377.907 162.232C378.633 162.467 379.209 162.744 379.635 163.064C380.062 163.363 380.35 163.608 380.499 163.8V165.304C379.753 164.792 378.985 164.429 378.195 164.216C377.406 163.981 376.563 163.864 375.667 163.864C374.835 163.864 374.153 163.971 373.619 164.184C373.107 164.397 372.723 164.696 372.467 165.08C372.211 165.464 372.083 165.923 372.083 166.456ZM371.699 159.672L370.451 157.784C371.006 157.379 371.763 156.973 372.723 156.568C373.705 156.163 374.878 155.96 376.243 155.96C377.395 155.96 378.398 156.141 379.251 156.504C380.126 156.845 380.798 157.347 381.267 158.008C381.758 158.669 382.003 159.48 382.003 160.44V171H379.443V160.792C379.443 160.28 379.358 159.864 379.187 159.544C379.017 159.203 378.771 158.936 378.451 158.744C378.153 158.552 377.801 158.413 377.395 158.328C376.99 158.243 376.563 158.2 376.115 158.2C375.39 158.2 374.729 158.285 374.131 158.456C373.555 158.627 373.065 158.829 372.659 159.064C372.254 159.299 371.934 159.501 371.699 159.672ZM386.978 169.72C386.978 169.229 387.148 168.813 387.49 168.472C387.852 168.131 388.268 167.96 388.738 167.96C389.228 167.96 389.644 168.131 389.986 168.472C390.327 168.813 390.498 169.229 390.498 169.72C390.498 170.189 390.327 170.605 389.986 170.968C389.644 171.309 389.228 171.48 388.738 171.48C388.268 171.48 387.852 171.309 387.49 170.968C387.148 170.605 386.978 170.189 386.978 169.72Z" fill="white"/>
<g filter="url(#filter0_d_166_57)">
<path d="M114.62 0C123.833 0 132.621 1.63981 140.648 4.6139V35.6003C134.166 30.5599 125.939 27.545 116.986 27.545C96.0769 27.545 79.1268 43.9881 79.1268 64.2718C79.1268 84.5554 96.0769 100.998 116.986 100.998H140.648V110.18H145.38V123.953L140.954 123.922L140.648 123.953L122.131 123.953H114.62C113.834 123.977 115.412 123.953 114.62 123.953C69.4248 125.336 46 96.2049 46 61.9763C46 27.7477 76.7221 0 114.62 0Z" fill="#FF4848"/>
<path d="M145.38 123.953L140.954 123.922L140.648 123.953L122.131 123.953H114.62L145.38 123.953Z" fill="#FF4848"/>
<path d="M145.38 114.771H268.423V119.362H145.38V114.771Z" fill="#F4DBB1"/>
<path d="M268.423 114.771H270.789V123.953H268.423V114.771Z" fill="#F4DBB1"/>
<path d="M133.045 83.5166L133.499 73.0127H160.682L161.061 83.5166H133.045ZM146.901 61.4805L139.935 76.9057L140.844 80.0643L134.711 91.8168H118.053L146.901 36.9471L175.826 91.8168H159.168L153.11 80.5784L153.943 76.9057L146.901 61.4805Z" fill="#FF4848"/>
<path d="M195.424 69.1197H210.492L226.393 91.8168H209.281L195.424 69.1197ZM181.038 40.3994H195.727V91.8168H181.038V40.3994ZM190.427 52.4458V40.3994H201.861C206.707 40.3994 210.694 41.1339 213.824 42.603C217.004 44.0721 219.351 46.1043 220.866 48.6996C222.431 51.246 223.213 54.2086 223.213 57.5875C223.213 60.9174 222.431 63.9045 220.866 66.5488C219.351 69.1442 217.004 71.1764 213.824 72.6454C210.694 74.0655 206.707 74.7756 201.861 74.7756H190.427V63.9779H200.649C202.214 63.9779 203.526 63.7576 204.586 63.3169C205.646 62.8761 206.454 62.2151 207.009 61.3336C207.615 60.4522 207.918 59.3993 207.918 58.1751C207.918 56.9509 207.615 55.9225 207.009 55.0901C206.454 54.2086 205.646 53.5476 204.586 53.1068C203.526 52.6661 202.214 52.4458 200.649 52.4458H190.427Z" fill="#FF4848"/>
<path d="M226.685 53.1068V40.3994H271.056V53.1068H256.215V91.8168H241.526V53.1068H226.685Z" fill="#FF4848"/>
<path d="M276.647 40.3994H291.337V79.697H312.765V91.8168H276.647V40.3994Z" fill="#FF4848"/>
<path d="M329.957 83.5166L330.411 73.0127H357.594L357.973 83.5166H329.957ZM343.813 61.4805L336.847 76.9057L337.756 80.0643L331.623 91.8168H314.965L343.813 36.9471L372.738 91.8168H356.08L350.022 80.5784L350.855 76.9057L343.813 61.4805Z" fill="#FF4848"/>
<path d="M402.386 73.6738V63.0965H429.872C430.225 67.3078 429.847 71.2743 428.736 74.996C427.626 78.7176 425.884 81.974 423.512 84.7653C421.139 87.5565 418.161 89.7601 414.577 91.3761C410.993 92.9431 406.879 93.7266 402.235 93.7266C397.944 93.7266 393.982 93.0655 390.347 91.7433C386.763 90.4212 383.633 88.5604 380.958 86.1609C378.333 83.7124 376.289 80.7988 374.825 77.4199C373.361 73.9921 372.629 70.2215 372.629 66.1081C372.629 61.9947 373.386 58.2731 374.901 54.9432C376.415 51.6133 378.535 48.7731 381.261 46.4226C383.987 44.0231 387.192 42.2112 390.877 40.987C394.562 39.7138 398.55 39.0772 402.841 39.0772C406.728 39.0772 410.185 39.6404 413.214 40.7667C416.293 41.844 418.994 43.3375 421.316 45.2473C423.638 47.1081 425.657 49.2383 427.373 51.6378L413.971 57.8813C412.911 56.0205 411.498 54.4535 409.731 53.1803C407.964 51.9071 405.667 51.2705 402.841 51.2705C400.165 51.2705 397.692 51.8336 395.42 52.9599C393.149 54.0862 391.331 55.7512 389.969 57.9548C388.656 60.1584 388 62.8761 388 66.1081C388 69.2911 388.631 72.0578 389.893 74.4083C391.155 76.7099 392.896 78.4728 395.117 79.697C397.338 80.9212 399.913 81.5333 402.841 81.5333C404.607 81.5333 406.172 81.3619 407.535 81.0191C408.898 80.6274 410.084 80.0887 411.094 79.4032C412.103 78.6686 412.962 77.8117 413.668 76.8323C414.426 75.8529 415.031 74.8001 415.486 73.6738H402.386Z" fill="#FF4848"/>
<path d="M257.407 119.362V116.148H255.987V119.362H257.407Z" fill="#505050"/>
<path d="M260.753 119.362L260.753 117.066H259.333L259.333 119.362H260.753Z" fill="#505050"/>
<path d="M267.446 119.362V116.148H266.026V119.362H267.446Z" fill="#505050"/>
<path d="M264.099 119.362L264.099 117.066H262.68L262.68 119.362H264.099Z" fill="#505050"/>
<path d="M250.714 119.362L250.714 117.066H249.294L249.294 119.362H250.714Z" fill="#505050"/>
<path d="M254.06 119.362L254.06 117.066H252.641V119.362H254.06Z" fill="#505050"/>
<path d="M237.328 119.362V116.148H235.909V119.362H237.328Z" fill="#505050"/>
<path d="M240.675 119.362L240.675 117.066H239.255L239.255 119.362H240.675Z" fill="#505050"/>
<path d="M247.367 119.362V116.148H245.948V119.362H247.367Z" fill="#505050"/>
<path d="M244.021 119.362L244.021 117.066H242.601L242.601 119.362H244.021Z" fill="#505050"/>
<path d="M230.635 119.362L230.635 117.066H229.216L229.216 119.362H230.635Z" fill="#505050"/>
<path d="M233.982 119.362L233.982 117.066H232.562V119.362H233.982Z" fill="#505050"/>
</g>
<defs>
<filter id="filter0_d_166_57" x="42" y="0" width="392" height="132" filterUnits="userSpaceOnUse" color-interpolation-filters="sRGB">
<feFlood flood-opacity="0" result="BackgroundImageFix"/>
<feColorMatrix in="SourceAlpha" type="matrix" values="0 0 0 0 0 0 0 0 0 0 0 0 0 0 0 0 0 0 127 0" result="hardAlpha"/>
<feOffset dy="4"/>
<feGaussianBlur stdDeviation="2"/>
<feComposite in2="hardAlpha" operator="out"/>
<feColorMatrix type="matrix" values="0 0 0 0 0 0 0 0 0 0 0 0 0 0 0 0 0 0 0.25 0"/>
<feBlend mode="normal" in2="BackgroundImageFix" result="effect1_dropShadow_166_57"/>
<feBlend mode="normal" in="SourceGraphic" in2="effect1_dropShadow_166_57" result="shape"/>
</filter>
</defs>
</svg>
