<svg width="492" height="198" viewBox="0 0 492 198" fill="none" xmlns="http://www.w3.org/2000/svg">
<path d="M119.757 163.6H126.925L118.989 177.04V186H112.653V177.104L104.685 163.6H111.853L115.821 171.44L119.757 163.6ZM124.648 178.64C124.648 177.061 125.022 175.696 125.768 174.544C126.515 173.392 127.539 172.507 128.84 171.888C130.163 171.248 131.646 170.928 133.288 170.928C134.952 170.928 136.435 171.248 137.736 171.888C139.038 172.507 140.062 173.392 140.808 174.544C141.576 175.696 141.96 177.061 141.96 178.64C141.96 180.197 141.576 181.552 140.808 182.704C140.062 183.856 139.038 184.752 137.736 185.392C136.435 186.011 134.952 186.32 133.288 186.32C131.646 186.32 130.163 186.011 128.84 185.392C127.539 184.752 126.515 183.856 125.768 182.704C125.022 181.552 124.648 180.197 124.648 178.64ZM130.344 178.64C130.344 179.323 130.472 179.909 130.728 180.4C131.006 180.869 131.368 181.232 131.816 181.488C132.264 181.723 132.755 181.84 133.288 181.84C133.822 181.84 134.312 181.723 134.76 181.488C135.208 181.232 135.571 180.869 135.848 180.4C136.126 179.909 136.264 179.323 136.264 178.64C136.264 177.957 136.126 177.381 135.848 176.912C135.571 176.421 135.208 176.048 134.76 175.792C134.312 175.536 133.822 175.408 133.288 175.408C132.755 175.408 132.264 175.536 131.816 175.792C131.368 176.048 131.006 176.421 130.728 176.912C130.472 177.381 130.344 177.957 130.344 178.64ZM150.49 180.24C150.49 181.008 150.618 181.605 150.874 182.032C151.13 182.437 151.61 182.64 152.314 182.64C152.783 182.64 153.178 182.555 153.498 182.384C153.818 182.213 154.063 181.947 154.234 181.584C154.426 181.221 154.522 180.773 154.522 180.24V171.28H160.058V186H154.522V183.824C154.095 184.592 153.508 185.211 152.762 185.68C152.036 186.128 151.119 186.352 150.01 186.352C148.09 186.352 146.724 185.872 145.914 184.912C145.103 183.931 144.698 182.565 144.698 180.816V171.28H150.49V180.24ZM168.981 171.28V186H163.573V171.28H168.981ZM173.173 176.944C172.938 176.688 172.671 176.485 172.373 176.336C172.095 176.165 171.743 176.08 171.317 176.08C170.89 176.08 170.495 176.197 170.133 176.432C169.77 176.667 169.482 177.019 169.269 177.488C169.077 177.957 168.981 178.544 168.981 179.248L167.829 177.04C167.829 175.867 168.063 174.821 168.533 173.904C169.002 172.987 169.621 172.261 170.389 171.728C171.178 171.173 171.999 170.896 172.853 170.896C173.386 170.896 173.898 171.024 174.389 171.28C174.879 171.515 175.242 171.813 175.477 172.176L173.173 176.944ZM187.811 180.4C188.707 181.083 189.485 181.595 190.147 181.936C190.808 182.277 191.373 182.501 191.843 182.608C192.312 182.715 192.675 182.768 192.931 182.768C193.336 182.768 193.635 182.683 193.827 182.512C194.019 182.341 194.115 182.107 194.115 181.808C194.115 181.552 194.029 181.339 193.859 181.168C193.709 180.976 193.411 180.784 192.963 180.592C192.536 180.4 191.896 180.165 191.043 179.888C190.339 179.653 189.667 179.365 189.027 179.024C188.387 178.661 187.864 178.181 187.459 177.584C187.075 176.965 186.883 176.176 186.883 175.216C186.883 174.299 187.128 173.531 187.619 172.912C188.109 172.272 188.781 171.792 189.635 171.472C190.488 171.131 191.48 170.96 192.611 170.96C193.485 170.96 194.296 171.056 195.043 171.248C195.811 171.419 196.536 171.653 197.219 171.952C197.901 172.229 198.573 172.56 199.235 172.944L197.603 176.624C196.92 176.027 196.152 175.547 195.299 175.184C194.467 174.8 193.731 174.608 193.091 174.608C192.685 174.608 192.387 174.683 192.195 174.832C192.024 174.981 191.939 175.163 191.939 175.376C191.939 175.675 192.067 175.92 192.323 176.112C192.579 176.283 192.963 176.453 193.475 176.624C193.987 176.795 194.637 177.029 195.427 177.328C196.173 177.605 196.856 177.925 197.475 178.288C198.115 178.629 198.627 179.077 199.011 179.632C199.416 180.187 199.619 180.923 199.619 181.84C199.619 183.504 199.117 184.731 198.115 185.52C197.133 186.309 195.736 186.704 193.923 186.704C192.835 186.704 191.811 186.597 190.851 186.384C189.912 186.171 189.027 185.872 188.195 185.488C187.363 185.104 186.563 184.667 185.795 184.176L187.811 180.4ZM201.689 165.936C201.689 165.083 201.987 164.389 202.585 163.856C203.203 163.323 203.939 163.056 204.793 163.056C205.667 163.056 206.403 163.323 207.001 163.856C207.619 164.389 207.929 165.083 207.929 165.936C207.929 166.768 207.619 167.451 207.001 167.984C206.403 168.517 205.667 168.784 204.793 168.784C203.939 168.784 203.203 168.517 202.585 167.984C201.987 167.451 201.689 166.768 201.689 165.936ZM202.137 171.28H207.449V186H202.137V171.28ZM217.089 176.272H211.265V171.28H226.145L219.329 181.008H224.993V186H209.793L217.089 176.272ZM235.916 186.32C234.103 186.32 232.535 186.011 231.212 185.392C229.911 184.752 228.908 183.867 228.204 182.736C227.5 181.584 227.148 180.219 227.148 178.64C227.148 177.04 227.49 175.675 228.172 174.544C228.855 173.392 229.836 172.507 231.116 171.888C232.396 171.269 233.932 170.96 235.724 170.96C237.516 170.96 239.02 171.248 240.236 171.824C241.452 172.4 242.38 173.243 243.02 174.352C243.66 175.44 243.98 176.784 243.98 178.384C243.98 178.64 243.97 178.896 243.948 179.152C243.948 179.387 243.938 179.6 243.916 179.792H230.188V176.944H238.86L237.676 178.416C237.783 178.245 237.879 178.053 237.964 177.84C238.05 177.627 238.092 177.445 238.092 177.296C238.092 176.699 237.986 176.197 237.772 175.792C237.58 175.365 237.292 175.045 236.908 174.832C236.546 174.597 236.108 174.48 235.596 174.48C234.956 174.48 234.423 174.629 233.996 174.928C233.57 175.227 233.25 175.685 233.036 176.304C232.823 176.901 232.716 177.669 232.716 178.608C232.695 179.44 232.802 180.144 233.036 180.72C233.271 181.296 233.612 181.744 234.06 182.064C234.508 182.363 235.063 182.512 235.724 182.512C236.535 182.512 237.218 182.373 237.772 182.096C238.348 181.797 238.796 181.371 239.116 180.816L244.108 181.808C243.319 183.323 242.242 184.453 240.876 185.2C239.532 185.947 237.879 186.32 235.916 186.32ZM245.357 183.568C245.357 182.651 245.666 181.872 246.285 181.232C246.925 180.571 247.746 180.24 248.749 180.24C249.751 180.24 250.562 180.571 251.181 181.232C251.799 181.872 252.109 182.651 252.109 183.568C252.109 184.464 251.799 185.243 251.181 185.904C250.562 186.544 249.751 186.864 248.749 186.864C247.746 186.864 246.925 186.544 246.285 185.904C245.666 185.243 245.357 184.464 245.357 183.568ZM278.57 163.6H285.738L277.802 177.04V186H271.466V177.104L263.498 163.6H270.666L274.634 171.44L278.57 163.6ZM283.461 178.64C283.461 177.061 283.834 175.696 284.581 174.544C285.327 173.392 286.351 172.507 287.653 171.888C288.975 171.248 290.458 170.928 292.101 170.928C293.765 170.928 295.247 171.248 296.549 171.888C297.85 172.507 298.874 173.392 299.621 174.544C300.389 175.696 300.773 177.061 300.773 178.64C300.773 180.197 300.389 181.552 299.621 182.704C298.874 183.856 297.85 184.752 296.549 185.392C295.247 186.011 293.765 186.32 292.101 186.32C290.458 186.32 288.975 186.011 287.653 185.392C286.351 184.752 285.327 183.856 284.581 182.704C283.834 181.552 283.461 180.197 283.461 178.64ZM289.157 178.64C289.157 179.323 289.285 179.909 289.541 180.4C289.818 180.869 290.181 181.232 290.629 181.488C291.077 181.723 291.567 181.84 292.101 181.84C292.634 181.84 293.125 181.723 293.573 181.488C294.021 181.232 294.383 180.869 294.661 180.4C294.938 179.909 295.077 179.323 295.077 178.64C295.077 177.957 294.938 177.381 294.661 176.912C294.383 176.421 294.021 176.048 293.573 175.792C293.125 175.536 292.634 175.408 292.101 175.408C291.567 175.408 291.077 175.536 290.629 175.792C290.181 176.048 289.818 176.421 289.541 176.912C289.285 177.381 289.157 177.957 289.157 178.64ZM309.302 180.24C309.302 181.008 309.43 181.605 309.686 182.032C309.942 182.437 310.422 182.64 311.126 182.64C311.595 182.64 311.99 182.555 312.31 182.384C312.63 182.213 312.875 181.947 313.046 181.584C313.238 181.221 313.334 180.773 313.334 180.24V171.28H318.87V186H313.334V183.824C312.907 184.592 312.321 185.211 311.574 185.68C310.849 186.128 309.931 186.352 308.822 186.352C306.902 186.352 305.537 185.872 304.726 184.912C303.915 183.931 303.51 182.565 303.51 180.816V171.28H309.302V180.24ZM327.793 171.28V186H322.385V171.28H327.793ZM331.985 176.944C331.75 176.688 331.484 176.485 331.185 176.336C330.908 176.165 330.556 176.08 330.129 176.08C329.702 176.08 329.308 176.197 328.945 176.432C328.582 176.667 328.294 177.019 328.081 177.488C327.889 177.957 327.793 178.544 327.793 179.248L326.641 177.04C326.641 175.867 326.876 174.821 327.345 173.904C327.814 172.987 328.433 172.261 329.201 171.728C329.99 171.173 330.812 170.896 331.665 170.896C332.198 170.896 332.71 171.024 333.201 171.28C333.692 171.515 334.054 171.813 334.289 172.176L331.985 176.944ZM356.959 161.04H362.495V186H356.959V161.04ZM345.023 178.64C345.023 176.955 345.354 175.547 346.015 174.416C346.698 173.285 347.562 172.432 348.607 171.856C349.674 171.259 350.783 170.96 351.935 170.96C353.173 170.96 354.271 171.269 355.231 171.888C356.191 172.507 356.949 173.392 357.503 174.544C358.079 175.675 358.367 177.04 358.367 178.64C358.367 180.219 358.079 181.584 357.503 182.736C356.949 183.888 356.191 184.773 355.231 185.392C354.271 186.011 353.173 186.32 351.935 186.32C350.783 186.32 349.674 186.032 348.607 185.456C347.562 184.859 346.698 183.995 346.015 182.864C345.354 181.712 345.023 180.304 345.023 178.64ZM350.847 178.64C350.847 179.28 350.986 179.856 351.263 180.368C351.541 180.88 351.914 181.275 352.383 181.552C352.853 181.829 353.365 181.968 353.919 181.968C354.41 181.968 354.89 181.84 355.359 181.584C355.829 181.307 356.213 180.923 356.511 180.432C356.81 179.941 356.959 179.344 356.959 178.64C356.959 177.936 356.81 177.339 356.511 176.848C356.213 176.357 355.829 175.984 355.359 175.728C354.89 175.451 354.41 175.312 353.919 175.312C353.365 175.312 352.853 175.451 352.383 175.728C351.914 176.005 351.541 176.4 351.263 176.912C350.986 177.403 350.847 177.979 350.847 178.64ZM370.491 181.392C370.491 181.712 370.565 181.989 370.715 182.224C370.885 182.437 371.109 182.608 371.387 182.736C371.664 182.843 371.963 182.896 372.283 182.896C372.752 182.896 373.2 182.8 373.627 182.608C374.053 182.395 374.395 182.075 374.651 181.648C374.928 181.2 375.067 180.645 375.067 179.984L375.579 181.904C375.579 182.843 375.333 183.643 374.843 184.304C374.373 184.965 373.723 185.467 372.891 185.808C372.08 186.149 371.184 186.32 370.203 186.32C369.264 186.32 368.389 186.149 367.579 185.808C366.789 185.445 366.149 184.923 365.659 184.24C365.168 183.536 364.923 182.683 364.923 181.68C364.923 180.272 365.413 179.163 366.395 178.352C367.397 177.541 368.837 177.136 370.715 177.136C371.525 177.136 372.283 177.211 372.987 177.36C373.712 177.509 374.341 177.712 374.875 177.968C375.429 178.203 375.845 178.469 376.123 178.768V181.104C375.696 180.741 375.163 180.464 374.523 180.272C373.883 180.08 373.211 179.984 372.507 179.984C372.016 179.984 371.621 180.037 371.323 180.144C371.024 180.251 370.811 180.411 370.683 180.624C370.555 180.816 370.491 181.072 370.491 181.392ZM367.803 176.112L366.043 172.496C366.981 172.091 368.059 171.717 369.275 171.376C370.512 171.013 371.824 170.832 373.211 170.832C374.555 170.832 375.76 171.024 376.827 171.408C377.915 171.771 378.768 172.315 379.387 173.04C380.027 173.765 380.347 174.651 380.347 175.696V186H375.067V177.008C375.067 176.688 375.013 176.4 374.907 176.144C374.821 175.888 374.672 175.675 374.459 175.504C374.245 175.312 373.968 175.173 373.627 175.088C373.285 174.981 372.891 174.928 372.443 174.928C371.824 174.928 371.184 175.003 370.523 175.152C369.883 175.301 369.317 175.472 368.827 175.664C368.336 175.856 367.995 176.005 367.803 176.112ZM382.16 171.28H392.752V175.76H382.16V171.28ZM384.816 166.16H390.096V186H384.816V166.16ZM399.178 181.392C399.178 181.712 399.253 181.989 399.402 182.224C399.573 182.437 399.797 182.608 400.074 182.736C400.352 182.843 400.65 182.896 400.97 182.896C401.44 182.896 401.888 182.8 402.314 182.608C402.741 182.395 403.082 182.075 403.338 181.648C403.616 181.2 403.754 180.645 403.754 179.984L404.266 181.904C404.266 182.843 404.021 183.643 403.53 184.304C403.061 184.965 402.41 185.467 401.578 185.808C400.768 186.149 399.872 186.32 398.89 186.32C397.952 186.32 397.077 186.149 396.266 185.808C395.477 185.445 394.837 184.923 394.346 184.24C393.856 183.536 393.61 182.683 393.61 181.68C393.61 180.272 394.101 179.163 395.082 178.352C396.085 177.541 397.525 177.136 399.402 177.136C400.213 177.136 400.97 177.211 401.674 177.36C402.4 177.509 403.029 177.712 403.562 177.968C404.117 178.203 404.533 178.469 404.81 178.768V181.104C404.384 180.741 403.85 180.464 403.21 180.272C402.57 180.08 401.898 179.984 401.194 179.984C400.704 179.984 400.309 180.037 400.01 180.144C399.712 180.251 399.498 180.411 399.37 180.624C399.242 180.816 399.178 181.072 399.178 181.392ZM396.49 176.112L394.73 172.496C395.669 172.091 396.746 171.717 397.962 171.376C399.2 171.013 400.512 170.832 401.898 170.832C403.242 170.832 404.448 171.024 405.514 171.408C406.602 171.771 407.456 172.315 408.074 173.04C408.714 173.765 409.034 174.651 409.034 175.696V186H403.754V177.008C403.754 176.688 403.701 176.4 403.594 176.144C403.509 175.888 403.36 175.675 403.146 175.504C402.933 175.312 402.656 175.173 402.314 175.088C401.973 174.981 401.578 174.928 401.13 174.928C400.512 174.928 399.872 175.003 399.21 175.152C398.57 175.301 398.005 175.472 397.514 175.664C397.024 175.856 396.682 176.005 396.49 176.112ZM412.576 183.568C412.576 182.651 412.885 181.872 413.504 181.232C414.144 180.571 414.965 180.24 415.968 180.24C416.97 180.24 417.781 180.571 418.4 181.232C419.018 181.872 419.328 182.651 419.328 183.568C419.328 184.464 419.018 185.243 418.4 185.904C417.781 186.544 416.97 186.864 415.968 186.864C414.965 186.864 414.144 186.544 413.504 185.904C412.885 185.243 412.576 184.464 412.576 183.568Z" fill="#EDEDED"/>
<g filter="url(#filter0_d_127_3)">
<path d="M83.3416 0C93.9939 0 104.156 1.89107 113.437 5.32087V41.0551C105.942 35.2425 96.4296 31.7656 86.0775 31.7656C61.9014 31.7656 42.3028 50.7283 42.3028 74.1198C42.3028 97.5114 61.9014 116.474 86.0775 116.474H113.437V127.063H118.908V142.945L113.791 142.91L113.437 142.945L92.0261 142.945H83.3416C82.4334 142.973 84.2572 142.945 83.3416 142.945C31.085 144.54 4 110.946 4 71.4727C4 31.9994 39.5224 0 83.3416 0Z" fill="url(#paint0_linear_127_3)"/>
<path d="M118.908 142.945L113.791 142.91L113.437 142.945L92.0261 142.945H83.3416L118.908 142.945Z" fill="url(#paint1_linear_127_3)"/>
<path d="M118.908 132.357H261.176V137.651H118.908V132.357Z" fill="#F4DBB1"/>
<path d="M261.176 132.357H263.912V142.945H261.176V132.357Z" fill="#F4DBB1"/>
<path d="M104.646 96.3134L105.171 84.2001H136.601L137.039 96.3134H104.646ZM120.667 70.9009L112.613 88.6897L113.663 92.3322L106.572 105.886H87.311L120.667 42.6083L154.111 105.886H134.85L127.846 92.9251L128.809 88.6897L120.667 70.9009Z" fill="url(#paint2_linear_127_3)"/>
<path d="M176.772 79.7106H194.194L212.58 105.886H192.794L176.772 79.7106ZM160.138 46.5896H177.122V105.886H160.138V46.5896ZM170.994 60.4818V46.5896H184.214C189.817 46.5896 194.428 47.4367 198.047 49.1309C201.724 50.825 204.438 53.1686 206.189 56.1617C207.998 59.0982 208.903 62.5148 208.903 66.4114C208.903 70.2515 207.998 73.6963 206.189 76.7458C204.438 79.7388 201.724 82.0824 198.047 83.7766C194.428 85.4143 189.817 86.2332 184.214 86.2332H170.994V73.781H182.813C184.622 73.781 186.14 73.5269 187.366 73.0186C188.591 72.5104 189.525 71.748 190.167 70.7315C190.867 69.715 191.218 68.5009 191.218 67.089C191.218 65.6772 190.867 64.4913 190.167 63.5313C189.525 62.5148 188.591 61.7524 187.366 61.2442C186.14 60.7359 184.622 60.4818 182.813 60.4818H170.994Z" fill="url(#paint3_linear_127_3)"/>
<path d="M212.917 61.2442V46.5896H264.221V61.2442H247.061V105.886H230.077V61.2442H212.917Z" fill="url(#paint4_linear_127_3)"/>
<path d="M270.686 46.5896H287.67V91.9086H312.447V105.886H270.686V46.5896Z" fill="url(#paint5_linear_127_3)"/>
<path d="M332.325 96.3134L332.851 84.2001H364.281L364.719 96.3134H332.325ZM348.347 70.9009L340.292 88.6897L341.343 92.3322L334.251 105.886H314.991L348.347 42.6083L381.791 105.886H362.53L355.526 92.9251L356.489 88.6897L348.347 70.9009Z" fill="url(#paint6_linear_127_3)"/>
<path d="M416.072 84.9625V72.7645H447.852C448.261 77.6211 447.823 82.1954 446.539 86.4873C445.255 90.7792 443.241 94.5346 440.498 97.7535C437.755 100.972 434.311 103.514 430.167 105.377C426.023 107.184 421.266 108.088 415.897 108.088C410.935 108.088 406.354 107.326 402.151 105.801C398.007 104.276 394.389 102.13 391.295 99.363C388.26 96.5393 385.896 93.1792 384.204 89.2827C382.511 85.3296 381.665 80.9812 381.665 76.2376C381.665 71.4939 382.54 67.202 384.291 63.3619C386.042 59.5218 388.494 56.2464 391.645 53.5357C394.797 50.7686 398.503 48.6791 402.764 47.2673C407.025 45.799 411.636 45.0649 416.597 45.0649C421.091 45.0649 425.089 45.7143 428.591 47.0132C432.152 48.2555 435.274 49.978 437.959 52.1804C440.644 54.3263 442.979 56.7829 444.963 59.55L429.467 66.7502C428.241 64.6043 426.607 62.7972 424.564 61.3289C422.521 59.8606 419.865 59.1265 416.597 59.1265C413.504 59.1265 410.644 59.7759 408.017 61.0748C405.391 62.3736 403.289 64.2937 401.714 66.8349C400.196 69.3762 399.437 72.5104 399.437 76.2376C399.437 79.9083 400.167 83.0989 401.626 85.8096C403.085 88.4638 405.099 90.4968 407.667 91.9086C410.235 93.3204 413.212 94.0263 416.597 94.0263C418.64 94.0263 420.449 93.8287 422.025 93.4334C423.601 92.9816 424.973 92.3604 426.14 91.5698C427.307 90.7227 428.299 89.7344 429.117 88.605C429.992 87.4755 430.692 86.2614 431.218 84.9625H416.072Z" fill="url(#paint7_linear_127_3)"/>
<path d="M248.439 137.651V133.945H246.797V137.651H248.439Z" fill="#A0A0A0"/>
<path d="M252.308 137.651L252.308 135.004H250.667L250.667 137.651H252.308Z" fill="#A0A0A0"/>
<path d="M260.047 137.651V133.945H258.405V137.651H260.047Z" fill="#A0A0A0"/>
<path d="M256.177 137.651L256.178 135.004H254.536L254.536 137.651H256.177Z" fill="#A0A0A0"/>
<path d="M240.7 137.651L240.7 135.004H239.059L239.059 137.651H240.7Z" fill="#A0A0A0"/>
<path d="M244.57 137.651L244.57 135.004H242.928V137.651H244.57Z" fill="#A0A0A0"/>
<path d="M225.223 137.651V133.945H223.582V137.651H225.223Z" fill="#A0A0A0"/>
<path d="M229.093 137.651L229.093 135.004H227.451L227.451 137.651H229.093Z" fill="#A0A0A0"/>
<path d="M236.831 137.651V133.945H235.19V137.651H236.831Z" fill="#A0A0A0"/>
<path d="M232.962 137.651L232.962 135.004H231.32L231.32 137.651H232.962Z" fill="#A0A0A0"/>
<path d="M217.485 137.651L217.485 135.004H215.843L215.843 137.651H217.485Z" fill="#A0A0A0"/>
<path d="M221.354 137.651L221.354 135.004H219.712V137.651H221.354Z" fill="#A0A0A0"/>
</g>
<defs>
<filter id="filter0_d_127_3" x="0" y="0" width="452" height="151" filterUnits="userSpaceOnUse" color-interpolation-filters="sRGB">
<feFlood flood-opacity="0" result="BackgroundImageFix"/>
<feColorMatrix in="SourceAlpha" type="matrix" values="0 0 0 0 0 0 0 0 0 0 0 0 0 0 0 0 0 0 127 0" result="hardAlpha"/>
<feOffset dy="4"/>
<feGaussianBlur stdDeviation="2"/>
<feComposite in2="hardAlpha" operator="out"/>
<feColorMatrix type="matrix" values="0 0 0 0 0 0 0 0 0 0 0 0 0 0 0 0 0 0 0.25 0"/>
<feBlend mode="normal" in2="BackgroundImageFix" result="effect1_dropShadow_127_3"/>
<feBlend mode="normal" in="SourceGraphic" in2="effect1_dropShadow_127_3" result="shape"/>
</filter>
<linearGradient id="paint0_linear_127_3" x1="4" y1="71.5" x2="448" y2="71.5" gradientUnits="userSpaceOnUse">
<stop stop-color="#FF4848"/>
<stop offset="1" stop-color="#FF6B6B"/>
</linearGradient>
<linearGradient id="paint1_linear_127_3" x1="4" y1="71.5" x2="448" y2="71.5" gradientUnits="userSpaceOnUse">
<stop stop-color="#FF4848"/>
<stop offset="1" stop-color="#FF6B6B"/>
</linearGradient>
<linearGradient id="paint2_linear_127_3" x1="4" y1="71.5" x2="448" y2="71.5" gradientUnits="userSpaceOnUse">
<stop stop-color="#FF4848"/>
<stop offset="1" stop-color="#FF6B6B"/>
</linearGradient>
<linearGradient id="paint3_linear_127_3" x1="4" y1="71.5" x2="448" y2="71.5" gradientUnits="userSpaceOnUse">
<stop stop-color="#FF4848"/>
<stop offset="1" stop-color="#FF6B6B"/>
</linearGradient>
<linearGradient id="paint4_linear_127_3" x1="4" y1="71.5" x2="448" y2="71.5" gradientUnits="userSpaceOnUse">
<stop stop-color="#FF4848"/>
<stop offset="1" stop-color="#FF6B6B"/>
</linearGradient>
<linearGradient id="paint5_linear_127_3" x1="4" y1="71.5" x2="448" y2="71.5" gradientUnits="userSpaceOnUse">
<stop stop-color="#FF4848"/>
<stop offset="1" stop-color="#FF6B6B"/>
</linearGradient>
<linearGradient id="paint6_linear_127_3" x1="4" y1="71.5" x2="448" y2="71.5" gradientUnits="userSpaceOnUse">
<stop stop-color="#FF4848"/>
<stop offset="1" stop-color="#FF6B6B"/>
</linearGradient>
<linearGradient id="paint7_linear_127_3" x1="4" y1="71.5" x2="448" y2="71.5" gradientUnits="userSpaceOnUse">
<stop stop-color="#FF4848"/>
<stop offset="1" stop-color="#FF6B6B"/>
</linearGradient>
</defs>
</svg>
